# Blender v2.78 (sub 0) OBJ File: ''
# www.blender.org
mtllib barricade0.mtl
o Barricade0(m0)
v 1.788875 1.267481 0.411831
v 1.798274 1.086183 0.565846
v 1.591255 1.379721 0.463557
v 1.749944 1.181474 0.198538
v 1.798274 1.086183 0.565846
v 1.591255 1.379721 0.463557
v 1.749944 1.181474 0.198538
v -0.456620 3.339833 0.172203
v -0.533247 2.877785 0.102643
v -0.647698 2.913595 0.249754
v -0.463476 2.878623 0.279154
v -0.780716 1.935998 0.306985
v -0.712781 1.923097 0.317827
v -0.738516 1.922793 0.252735
v -1.156617 -0.078339 0.486614
v -1.201701 -0.078883 0.372537
v -1.275681 -0.055735 0.467614
v -0.833439 3.769397 0.015792
v -0.951540 3.317474 0.093343
v -0.764076 3.313382 0.122743
v -0.832749 3.301036 -0.053767
v -0.852255 2.329815 0.161416
v -0.877583 2.325256 0.096324
v -0.959663 0.282568 0.330206
v -1.004049 0.274590 0.216125
v -0.921390 2.331324 0.150574
v -1.080823 0.285211 0.311204
v 0.846671 0.058643 -0.773412
v 0.595069 0.130248 -0.527215
v 1.450490 0.075988 -0.310737
v 1.277391 0.149849 -0.004388
v 0.423592 0.439757 -0.227540
v 1.027406 0.457095 0.235138
v 0.485924 0.439757 0.512501
v 0.830475 0.130248 0.490097
v 0.266661 0.427019 0.420430
v 0.595513 -0.073449 0.391547
v 1.174645 0.058643 0.564015
v 1.339505 -0.089081 0.503379
v 0.281309 0.472365 -2.320152
v 0.601508 0.155598 -2.430327
v 0.047730 0.471958 -2.366637
v 0.343480 -0.034383 -2.491496
v 0.950286 0.069627 -2.431908
v 1.093545 -0.078212 -2.533396
v 0.352843 1.659512 0.334736
v 0.352843 -0.048405 0.334736
v -1.056687 -0.048405 0.394341
v -1.056687 1.659512 0.394341
v -0.955329 0.886566 -0.964383
v -1.007138 0.886565 0.351002
v 0.267372 0.886565 0.417798
v 0.319187 0.886566 -0.897590
v -1.007138 0.886565 0.351002
v -1.007138 -0.048405 0.351002
v 0.267372 -0.048405 0.417797
v 0.267372 0.886565 0.417798
v -0.955329 0.886566 -0.964383
v -0.955329 -0.048405 -0.964383
v -1.007138 -0.048405 0.351002
v -1.007138 0.886565 0.351002
v 0.319187 0.886566 -0.897590
v 0.319187 -0.048405 -0.897590
v -0.955329 -0.048405 -0.964383
v -0.955329 0.886566 -0.964383
v 0.267372 0.886565 0.417798
v 0.267372 -0.048405 0.417797
v 0.319187 -0.048405 -0.897590
v 0.319187 0.886566 -0.897590
v -1.144410 0.931896 -2.548504
v -1.069910 1.135754 -0.842211
v 0.213013 1.135754 -0.898226
v 0.138514 0.931896 -2.604514
v -1.144410 0.931896 -2.548504
v -1.144410 -0.048405 -2.548504
v -1.069910 -0.048405 -0.842211
v -1.069910 1.135754 -0.842211
v 0.138514 0.931896 -2.604514
v 0.138514 -0.048405 -2.604514
v -1.144410 -0.048405 -2.548504
v -1.144410 0.931896 -2.548504
v 0.213013 1.135754 -0.898226
v 0.213012 -0.048405 -0.898226
v 0.138514 -0.048405 -2.604514
v 0.138514 0.931896 -2.604514
v 0.846671 0.058643 -0.773412
v 1.450490 0.075988 -0.310737
v 0.887098 -0.089081 -0.944358
v 1.547098 -0.068093 -0.292473
v 0.887098 -0.089081 -0.944358
v 0.383206 -0.073449 -0.385683
v 0.846671 0.058643 -0.773412
v 0.595069 0.130248 -0.527215
v 0.225786 0.427019 -0.095516
v 0.423592 0.439757 -0.227540
v 1.027406 0.457095 0.235138
v 0.423592 0.439757 -0.227540
v 0.956408 0.448000 0.464318
v 0.225786 0.427019 -0.095516
v 0.956408 0.448000 0.464318
v 1.208812 -0.051660 0.246939
v 1.027406 0.457095 0.235138
v 1.277391 0.149849 -0.004388
v 1.547098 -0.068093 -0.292473
v 1.450490 0.075988 -0.310737
v 1.174645 0.058643 0.564015
v 0.830475 0.130248 0.490097
v 1.122092 0.075988 1.322909
v 0.771097 0.149848 1.347641
v 0.485924 0.439757 0.512501
v 0.433380 0.457095 1.271395
v 1.174645 0.058643 0.564015
v 1.122092 0.075988 1.322909
v 1.339505 -0.089081 0.503379
v 1.160181 -0.068093 1.413538
v 0.433380 0.457095 1.271395
v 0.485924 0.439757 0.512501
v 0.203075 0.448000 1.338681
v 0.266661 0.427019 0.420430
v 0.203075 0.448000 1.338681
v 0.523655 -0.051660 1.429171
v 0.433380 0.457095 1.271395
v 0.771097 0.149848 1.347641
v 1.160181 -0.068093 1.413538
v 1.122092 0.075988 1.322909
v 0.950286 0.069627 -2.431908
v 0.601508 0.155598 -2.430327
v 1.051157 0.037304 -1.678413
v 0.715490 0.119073 -1.578873
v 0.281309 0.472365 -2.320152
v 0.382181 0.440045 -1.566653
v 0.950286 0.069627 -2.431908
v 1.051157 0.037304 -1.678413
v 1.093545 -0.078212 -2.533396
v 1.100674 -0.113556 -1.606202
v 0.382181 0.440045 -1.566653
v 0.281309 0.472365 -2.320152
v 0.169787 0.432854 -1.454906
v 0.047730 0.471958 -2.366637
v 0.169787 0.432854 -1.454906
v 0.481321 -0.080501 -1.461359
v 0.382181 0.440045 -1.566653
v 0.715490 0.119073 -1.578873
v 1.100674 -0.113556 -1.606202
v 1.051157 0.037304 -1.678413
v 1.749944 1.181474 0.198538
v 1.591255 1.379721 0.463557
v 2.184855 1.551714 0.438213
v 1.591255 1.379721 0.463557
v 1.798274 1.086183 0.565846
v 2.184855 1.551714 0.438213
v 1.798274 1.086183 0.565846
v 1.749944 1.181474 0.198538
v 2.184855 1.551714 0.438213
v -0.175461 -0.266213 0.406307
v 1.798274 1.086183 0.565846
v 1.591255 1.379721 0.463557
v -0.287349 -0.110905 0.356031
v -0.198267 -0.223917 0.219513
v -0.287349 -0.110905 0.356031
v 1.591255 1.379721 0.463557
v 1.749944 1.181474 0.198538
v 1.798274 1.086183 0.565846
v -0.175461 -0.266213 0.406307
v -0.198267 -0.223917 0.219513
v 1.749944 1.181474 0.198538
v 1.602181 1.322121 1.704645
v 1.418411 1.475876 1.571919
v 1.587059 1.433308 1.571561
v 1.418411 1.475876 1.571919
v 1.611101 1.343579 1.420117
v 1.611101 1.343579 1.420117
v 1.602181 1.322121 1.704645
v 1.808412 1.721518 1.596826
v 1.418411 1.475876 1.571919
v 1.602181 1.322121 1.704645
v 1.808412 1.721518 1.596826
v 1.611101 1.343579 1.420117
v 1.418411 1.475876 1.571919
v 1.808412 1.721518 1.596826
v 1.602181 1.322121 1.704645
v 1.611101 1.343579 1.420117
v 1.418411 1.475876 1.571919
v 1.611101 1.343579 1.420117
v 0.498386 -0.054942 1.328946
v 0.394302 0.015313 1.406674
v 1.418411 1.475876 1.571919
v 0.394302 0.015313 1.406674
v 0.496331 -0.069652 1.472115
v 1.602181 1.322121 1.704645
v 0.496331 -0.069652 1.472115
v 0.498386 -0.054942 1.328946
v 1.611101 1.343579 1.420117
v 1.602181 1.322121 1.704645
v 1.244111 0.626034 -1.233476
v 1.076439 0.814632 -1.339984
v 1.230355 0.737929 -1.366104
v 1.076439 0.814632 -1.339984
v 1.210150 0.645164 -1.516276
v 1.210150 0.645164 -1.516276
v 1.244111 0.626034 -1.233476
v 1.507168 0.973823 -1.386814
v 1.076439 0.814632 -1.339984
v 1.244111 0.626034 -1.233476
v 1.507168 0.973823 -1.386814
v 1.210150 0.645164 -1.516276
v 1.076439 0.814632 -1.339984
v 1.507168 0.973823 -1.386814
v 1.244111 0.626034 -1.233476
v 1.210150 0.645164 -1.516276
v 1.076439 0.814632 -1.339984
v 1.210150 0.645164 -1.516276
v -0.165146 -0.491445 -1.378570
v -0.238329 -0.401085 -1.287511
v 1.076439 0.814632 -1.339984
v -0.238329 -0.401085 -1.287511
v -0.146519 -0.505407 -1.236530
v 1.244111 0.626034 -1.233476
v -0.146519 -0.505407 -1.236530
v -0.165146 -0.491445 -1.378570
v 1.210150 0.645164 -1.516276
v 1.244111 0.626034 -1.233476
v -0.997081 1.659512 2.101212
v 0.412448 1.659512 2.041610
v 0.352843 1.659512 0.334736
v -1.056687 1.659512 0.394341
v 0.412448 1.659512 2.041610
v 0.412448 -0.048406 2.041610
v 0.352843 -0.048405 0.334736
v 0.352843 1.659512 0.334736
v -0.997081 1.659512 2.101212
v -0.997081 -0.048406 2.101212
v 0.412448 -0.048406 2.041610
v 0.412448 1.659512 2.041610
v -1.056687 1.659512 0.394341
v -1.056687 -0.048405 0.394341
v -0.997081 -0.048406 2.101212
v -0.997081 1.659512 2.101212
v 0.625000 0.478115 -0.918999
v 0.495865 0.446000 -1.035363
v 0.412731 0.216989 -0.522397
v 0.950913 -0.079051 -0.842870
v 0.543273 -0.079051 -1.251419
v 0.495865 0.446000 -1.035363
v 0.495865 0.446000 -1.035363
v 0.625000 0.478115 -0.918999
v 0.950913 -0.079051 -0.842870
v 0.495865 0.446000 -1.035363
v 0.034687 -0.079051 -1.014102
v 0.412731 0.216989 -0.522397
v 0.034687 -0.079051 -1.014102
v 0.495865 0.446000 -1.035363
v 0.543273 -0.079051 -1.251419
v 0.412731 0.216989 -0.522397
v 0.950913 -0.079051 -0.842870
v 0.625000 0.478115 -0.918999
vt 0.7520 0.1731
vt 0.7677 0.2507
vt 0.7622 0.2500
vt 0.7677 0.2507
vt 0.7622 0.2500
vt 0.7677 0.2507
vt 0.7622 0.2500
vt 0.9725 1.0000
vt 0.9725 0.9529
vt 0.9451 0.9529
vt 0.9961 0.9529
vt 0.9608 0.7882
vt 0.9882 0.7882
vt 0.9725 0.7882
vt 0.9882 0.5020
vt 0.9725 0.5020
vt 0.9608 0.5020
vt 0.9725 1.0000
vt 0.9451 0.9529
vt 0.9961 0.9529
vt 0.9725 0.9529
vt 0.9882 0.7882
vt 0.9725 0.7882
vt 0.9882 0.5020
vt 0.9725 0.5020
vt 0.9608 0.7882
vt 0.9608 0.5020
vt 0.9294 0.7765
vt 0.9294 0.8745
vt 0.8314 0.7765
vt 0.8314 0.8745
vt 0.9294 0.9725
vt 0.8314 0.9725
vt 0.9294 0.9725
vt 0.9294 0.8745
vt 0.9412 0.9961
vt 0.9412 0.8745
vt 0.9294 0.7765
vt 0.9412 0.7529
vt 0.9294 0.9725
vt 0.9294 0.8745
vt 0.9412 0.9961
vt 0.9412 0.8745
vt 0.9294 0.7765
vt 0.9412 0.7529
vt 0.5961 0.9961
vt 0.5961 0.7529
vt 0.3765 0.7529
vt 0.3765 0.9961
vt 0.8157 0.9961
vt 0.8157 0.7529
vt 0.6000 0.7529
vt 0.6000 0.9961
vt 0.5961 1.0000
vt 0.5961 0.7529
vt 0.3765 0.7529
vt 0.3765 1.0000
vt 0.5961 1.0000
vt 0.5961 0.7529
vt 0.3765 0.7529
vt 0.3765 1.0000
vt 0.5961 1.0000
vt 0.5961 0.7529
vt 0.3765 0.7529
vt 0.3765 1.0000
vt 0.5961 1.0000
vt 0.5961 0.7529
vt 0.3765 0.7529
vt 0.3765 1.0000
vt 0.8157 0.9961
vt 0.8157 0.7529
vt 0.6000 0.7529
vt 0.6000 0.9961
vt 0.5961 0.9961
vt 0.5961 0.7529
vt 0.3765 0.7529
vt 0.3765 0.9961
vt 0.5961 0.9961
vt 0.5961 0.7529
vt 0.3765 0.7529
vt 0.3765 0.9961
vt 0.8151 0.9961
vt 0.8151 0.7529
vt 0.5955 0.7529
vt 0.5955 0.9961
vt 0.9294 0.7765
vt 0.8314 0.7765
vt 0.9412 0.7529
vt 0.8196 0.7529
vt 0.9412 0.7529
vt 0.9412 0.8745
vt 0.9294 0.7765
vt 0.9294 0.8745
vt 0.9412 0.9961
vt 0.9294 0.9725
vt 0.8314 0.9725
vt 0.9294 0.9725
vt 0.8196 0.9961
vt 0.9412 0.9961
vt 0.8196 0.9961
vt 0.8196 0.8745
vt 0.8314 0.9725
vt 0.8314 0.8745
vt 0.8196 0.7529
vt 0.8314 0.7765
vt 0.9294 0.7765
vt 0.9294 0.8745
vt 0.8314 0.7765
vt 0.8314 0.8745
vt 0.9294 0.9725
vt 0.8314 0.9725
vt 0.9294 0.7765
vt 0.8314 0.7765
vt 0.9412 0.7529
vt 0.8196 0.7529
vt 0.8314 0.9725
vt 0.9294 0.9725
vt 0.8196 0.9961
vt 0.9412 0.9961
vt 0.8196 0.9961
vt 0.8196 0.8745
vt 0.8314 0.9725
vt 0.8314 0.8745
vt 0.8196 0.7529
vt 0.8314 0.7765
vt 0.9294 0.7765
vt 0.9294 0.8745
vt 0.8314 0.7765
vt 0.8314 0.8745
vt 0.9294 0.9725
vt 0.8314 0.9725
vt 0.9294 0.7765
vt 0.8314 0.7765
vt 0.9412 0.7529
vt 0.8196 0.7529
vt 0.8314 0.9725
vt 0.9294 0.9725
vt 0.8196 0.9961
vt 0.9412 0.9961
vt 0.8196 0.9961
vt 0.8196 0.8745
vt 0.8314 0.9725
vt 0.8314 0.8745
vt 0.8196 0.7529
vt 0.8314 0.7765
vt 0.7520 0.1731
vt 0.7890 0.1729
vt 0.7677 0.2507
vt 0.7520 0.1731
vt 0.7890 0.1729
vt 0.7677 0.2507
vt 0.7520 0.1731
vt 0.7890 0.1729
vt 0.7677 0.2507
vt 0.9932 0.4941
vt 0.9932 0.0083
vt 0.9659 0.0083
vt 0.9659 0.4941
vt 0.9611 0.0000
vt 1.0000 0.0000
vt 1.0000 0.4855
vt 0.9611 0.4855
vt 0.9962 0.0081
vt 0.9962 0.4943
vt 0.9649 0.4943
vt 0.9649 0.0081
vt 0.7622 0.2500
vt 0.7677 0.2507
vt 0.7520 0.1731
vt 0.7622 0.2500
vt 0.7677 0.2507
vt 0.7622 0.2500
vt 0.7677 0.2507
vt 0.7677 0.2507
vt 0.7890 0.1729
vt 0.7520 0.1731
vt 0.7677 0.2507
vt 0.7890 0.1729
vt 0.7520 0.1731
vt 0.7677 0.2507
vt 0.7890 0.1729
vt 0.7520 0.1731
vt 0.9659 0.0083
vt 0.9932 0.0083
vt 0.9932 0.4941
vt 0.9659 0.4941
vt 1.0000 0.4855
vt 1.0000 0.0000
vt 0.9611 0.0000
vt 0.9611 0.4855
vt 0.9649 0.4943
vt 0.9962 0.4943
vt 0.9962 0.0081
vt 0.9649 0.0081
vt 0.7622 0.2500
vt 0.7677 0.2507
vt 0.7520 0.1731
vt 0.7622 0.2500
vt 0.7677 0.2507
vt 0.7622 0.2500
vt 0.7677 0.2507
vt 0.7677 0.2507
vt 0.7890 0.1729
vt 0.7520 0.1731
vt 0.7677 0.2507
vt 0.7890 0.1729
vt 0.7520 0.1731
vt 0.7677 0.2507
vt 0.7890 0.1729
vt 0.7520 0.1731
vt 0.9659 0.0083
vt 0.9932 0.0083
vt 0.9932 0.4941
vt 0.9659 0.4941
vt 1.0000 0.4855
vt 1.0000 0.0000
vt 0.9611 0.0000
vt 0.9611 0.4855
vt 0.9649 0.4943
vt 0.9962 0.4943
vt 0.9962 0.0081
vt 0.9649 0.0081
vt 0.8157 0.9961
vt 0.8157 0.7529
vt 0.6000 0.7529
vt 0.6000 0.9961
vt 0.8171 0.9961
vt 0.8171 0.7529
vt 0.5975 0.7529
vt 0.5975 0.9961
vt 0.5961 0.9961
vt 0.5961 0.7529
vt 0.3765 0.7529
vt 0.3765 0.9961
vt 0.5961 0.9961
vt 0.5961 0.7529
vt 0.3765 0.7529
vt 0.3765 0.9961
vt 0.7516 0.0252
vt 0.8807 0.0252
vt 0.8807 0.1598
vt 0.8800 0.0268
vt 0.8819 0.1572
vt 0.8227 0.1609
vt 0.8819 0.1584
vt 0.7514 0.1584
vt 0.7514 0.0268
vt 0.7514 0.0268
vt 0.8819 0.0268
vt 0.8819 0.1584
vt 0.8819 0.1584
vt 0.7514 0.1584
vt 0.7514 0.0268
vt 0.7514 0.0268
vt 0.8819 0.0268
vt 0.8819 0.1584
vn -0.8101 -0.5849 -0.0412
vn -0.9027 -0.3048 -0.3037
vn -0.5171 -0.8435 -0.1454
vn -0.8213 -0.4611 0.3358
vn -0.8213 -0.4611 0.3359
vn 0.1987 0.9765 -0.0832
vn 0.4561 -0.1171 -0.8822
vn -0.9678 0.2502 0.0290
vn 0.5412 0.0123 0.8408
vn -0.9811 0.1901 0.0350
vn 0.9687 -0.2465 -0.0301
vn 0.1295 -0.1442 -0.9810
vn 0.9053 -0.2308 -0.3567
vn -0.3600 0.0301 -0.9325
vn -0.7648 0.1393 -0.6290
vn 0.0348 0.9959 -0.0832
vn -0.9958 0.0870 0.0290
vn 0.5317 0.1015 0.8408
vn 0.4692 -0.0402 -0.8822
vn 0.9961 -0.0832 -0.0301
vn 0.1515 -0.1209 -0.9810
vn 0.9309 -0.0783 -0.3567
vn -0.3600 -0.0297 -0.9325
vn -0.9991 0.0255 0.0350
vn -0.7774 0.0112 -0.6290
vn 0.1066 0.9787 -0.1757
vn 0.2087 0.9285 -0.3072
vn 0.3075 0.8473 -0.4330
vn 0.3937 0.7426 -0.5417
vn 0.3937 0.7427 -0.5417
vn 0.3289 0.4271 -0.8423
vn 0.2675 0.2727 -0.9242
vn 0.2792 0.3177 -0.9062
vn 0.2045 0.3001 -0.9317
vn 0.1936 0.3485 -0.9171
vn 0.1387 0.5046 -0.8522
vn 0.1711 0.4735 -0.8640
vn 0.0884 0.3267 -0.9410
vn 0.1053 0.3701 -0.9230
vn 0.0263 0.3563 -0.9340
vn 0.0206 0.4039 -0.9146
vn -0.0139 0.5567 -0.8306
vn -0.0422 0.0000 -0.9991
vn -0.0000 1.0000 0.0000
vn -0.0523 -0.0000 0.9986
vn -0.9992 0.0000 -0.0394
vn 0.0523 0.0000 -0.9986
vn 0.9992 -0.0000 0.0394
vn -0.0052 0.9930 -0.1184
vn -0.9990 0.0000 0.0436
vn -0.0436 0.0000 -0.9990
vn 0.9990 -0.0000 -0.0436
vn 0.3963 0.7390 -0.5449
vn 0.5400 0.5620 -0.6266
vn 0.6520 0.3521 -0.6715
vn -0.6340 0.5046 -0.5860
vn -0.6641 0.3001 -0.6848
vn -0.6579 0.3485 -0.6676
vn -0.6230 0.2727 -0.7332
vn -0.6015 0.3177 -0.7330
vn -0.5208 0.4271 -0.7391
vn -0.0477 0.9986 0.0248
vn -0.0477 0.9986 0.0249
vn 0.8989 0.3273 0.2914
vn 0.8467 0.3264 0.4203
vn 0.8672 0.3181 0.3830
vn 0.8087 0.4054 0.4262
vn 0.7955 0.4537 0.4016
vn 0.7734 0.5569 0.3027
vn 0.2054 0.9787 -0.0081
vn 0.3713 0.9285 0.0045
vn 0.5308 0.8473 0.0174
vn 0.6690 0.7427 0.0294
vn 0.6731 0.7390 0.0297
vn 0.8205 0.5620 0.1045
vn 0.9198 0.3521 0.1731
vn -0.0470 0.9986 -0.0261
vn -0.0471 0.9986 -0.0261
vn 0.2531 0.3272 0.9104
vn 0.1169 0.3264 0.9380
vn 0.1592 0.3181 0.9346
vn 0.0910 0.4054 0.9096
vn 0.1042 0.4537 0.8850
vn 0.1744 0.5569 0.8121
vn 0.2394 0.9709 0.0096
vn 0.4023 0.9154 -0.0146
vn 0.5577 0.8291 -0.0391
vn 0.6912 0.7201 -0.0616
vn 0.6950 0.7163 -0.0623
vn 0.8471 0.5306 -0.0297
vn 0.9495 0.3139 0.0047
vn -0.0105 0.9990 0.0443
vn -0.0106 0.9990 0.0443
vn 0.4430 0.2580 0.8586
vn 0.3151 0.2591 0.9130
vn 0.3556 0.2499 0.9006
vn 0.2873 0.3405 0.8953
vn 0.2974 0.3900 0.8715
vn 0.3557 0.4959 0.7922
vn 0.4515 0.0464 -0.8910
vn -0.2581 0.9296 0.2631
vn -0.2332 0.7065 -0.6682
vn -0.2581 0.9296 0.2632
vn 0.6470 -0.3517 0.6766
vn -0.0461 0.2996 0.9530
vn 0.6469 -0.3518 0.6766
vn 0.4515 0.0464 -0.8911
vn 0.7054 -0.6580 -0.2635
vn -0.1999 0.1811 0.9629
vn -0.2069 0.1886 0.9600
vn -0.1930 0.1736 0.9657
vn -0.4149 0.5708 -0.7085
vn -0.4021 0.5590 -0.7251
vn -0.4275 0.5823 -0.6915
vn 0.5608 -0.7854 -0.2619
vn 0.5612 -0.7899 -0.2474
vn 0.5608 -0.7854 -0.2618
vn 0.5603 -0.7808 -0.2763
vn -0.7124 -0.5763 -0.4005
vn -0.2440 -0.9660 -0.0857
vn -0.6080 -0.7897 -0.0824
vn -0.7280 -0.6342 0.2602
vn -0.6079 -0.7897 -0.0824
vn -0.7280 -0.6343 0.2602
vn -0.3015 0.3905 0.8698
vn -0.5347 0.8430 0.0583
vn 0.5607 -0.0668 0.8253
vn -0.2772 0.5219 -0.8067
vn 0.5991 0.0605 -0.7983
vn -0.5347 0.8431 0.0583
vn 0.8878 -0.4603 -0.0069
vn 0.5991 0.0604 -0.7984
vn -0.3936 0.3701 -0.8415
vn -0.4017 0.3741 -0.8359
vn -0.3854 0.3661 -0.8470
vn -0.4316 0.2007 0.8794
vn -0.4136 0.1893 0.8906
vn -0.4316 0.2007 0.8795
vn -0.4494 0.2121 0.8678
vn 0.7839 -0.6197 -0.0373
vn 0.7831 -0.6197 -0.0524
vn 0.7845 -0.6197 -0.0221
vn -0.8715 -0.4156 -0.2603
vn -0.4476 -0.8941 -0.0119
vn -0.7620 -0.6460 0.0440
vn -0.7895 -0.4690 0.3960
vn -0.7895 -0.4690 0.3959
vn -0.8715 -0.4156 -0.2602
vn -0.7621 -0.6460 0.0440
vn -0.0672 0.4446 0.8932
vn -0.3333 0.9358 0.1149
vn 0.6634 -0.1818 0.7258
vn -0.2936 0.5681 -0.7688
vn 0.4587 -0.0653 -0.8862
vn 0.7609 -0.6348 -0.1343
vn 0.6635 -0.1819 0.7258
vn 0.4586 -0.0654 -0.8862
vn -0.4427 0.4439 -0.7791
vn -0.4488 0.4494 -0.7724
vn -0.4427 0.4438 -0.7791
vn -0.4366 0.4382 -0.7857
vn -0.2301 0.2860 0.9302
vn -0.2132 0.2711 0.9386
vn -0.2468 0.3008 0.9212
vn 0.6230 -0.7692 -0.1420
vn 0.6198 -0.7689 -0.1569
vn 0.6230 -0.7692 -0.1421
vn 0.6262 -0.7692 -0.1272
vn 0.9994 0.0000 -0.0349
vn 0.0422 -0.0000 0.9991
vn -0.9994 0.0000 0.0349
vn -0.4720 0.8310 0.2945
vn 0.6406 0.2953 -0.7088
vn 0.6672 0.3342 -0.6657
vn 0.6114 0.2553 -0.7490
vn -0.6911 0.5902 -0.4172
vn -0.6911 0.5901 -0.4172
vn -0.7366 0.6540 0.1726
vn -0.4010 0.3174 -0.8593
vn 0.6267 0.4532 0.6339
usemtl SpinningBoard
s 1
f 1/1/1 2/2/2 3/3/3
f 1/1/1 4/4/4 5/5/2
f 1/1/1 6/6/3 7/7/5
f 8/8/6 9/9/7 10/10/8
f 8/8/6 10/10/8 11/11/9
f 11/11/9 10/10/8 12/12/10
f 11/11/9 12/12/10 13/13/11
f 8/8/6 11/11/9 9/9/7
f 10/10/8 14/14/12 12/12/10
f 10/10/8 9/9/7 14/14/12
f 9/9/7 13/13/11 14/14/12
f 9/9/7 11/11/9 13/13/11
f 14/14/12 13/13/11 15/15/13
f 14/14/12 15/15/13 16/16/14
f 12/12/10 14/14/12 16/16/14
f 12/12/10 16/16/14 17/17/15
f 18/18/16 19/19/17 20/20/18
f 18/18/16 20/20/18 21/21/19
f 21/21/19 20/20/18 22/22/20
f 21/21/19 22/22/20 23/23/21
f 23/23/21 22/22/20 24/24/22
f 23/23/21 24/24/22 25/25/23
f 18/18/16 21/21/19 19/19/17
f 20/20/18 26/26/24 22/22/20
f 20/20/18 19/19/17 26/26/24
f 19/19/17 23/23/21 26/26/24
f 19/19/17 21/21/19 23/23/21
f 26/26/24 25/25/23 27/27/25
f 26/26/24 23/23/21 25/25/23
f 28/28/26 29/29/27 30/30/26
f 31/31/28 30/30/26 29/29/27
f 29/29/27 32/32/29 31/31/28
f 33/33/30 31/31/28 32/32/29
f 34/34/31 35/35/32 36/36/33
f 37/37/34 36/36/33 35/35/32
f 35/35/32 38/38/35 37/37/34
f 39/39/36 37/37/34 38/38/35
f 40/40/37 41/41/38 42/42/39
f 43/43/40 42/42/39 41/41/38
f 41/41/38 44/44/41 43/43/40
f 45/45/42 43/43/40 44/44/41
f 46/46/43 47/47/43 48/48/43
f 48/48/43 49/49/43 46/46/43
f 50/50/44 51/51/44 52/52/44
f 52/52/44 53/53/44 50/50/44
f 54/54/45 55/55/45 56/56/45
f 56/56/45 57/57/45 54/54/45
f 58/58/46 59/59/46 60/60/46
f 60/60/46 61/61/46 58/58/46
f 62/62/47 63/63/47 64/64/47
f 64/64/47 65/65/47 62/62/47
f 66/66/48 67/67/48 68/68/48
f 68/68/48 69/69/48 66/66/48
f 70/70/49 71/71/49 72/72/49
f 72/72/49 73/73/49 70/70/49
f 74/74/50 75/75/50 76/76/50
f 76/76/50 77/77/50 74/74/50
f 78/78/51 79/79/51 80/80/51
f 80/80/51 81/81/51 78/78/51
f 82/82/52 83/83/52 84/84/52
f 84/84/52 85/85/52 82/82/52
f 86/86/53 87/87/54 88/88/54
f 89/89/55 88/88/54 87/87/54
f 90/90/56 91/91/57 92/92/58
f 93/93/59 92/92/58 91/91/57
f 91/91/57 94/94/60 93/93/59
f 95/95/61 93/93/59 94/94/60
f 96/96/62 97/97/63 98/98/62
f 99/99/63 98/98/62 97/97/63
f 100/100/64 101/101/65 102/102/66
f 103/103/67 102/102/66 101/101/65
f 101/101/65 104/104/68 103/103/67
f 105/105/69 103/103/67 104/104/68
f 106/106/70 107/107/71 108/108/70
f 109/109/72 108/108/70 107/107/71
f 107/107/71 110/110/73 109/109/72
f 111/111/73 109/109/72 110/110/73
f 112/112/74 113/113/75 114/114/75
f 115/115/76 114/114/75 113/113/75
f 116/116/77 117/117/78 118/118/78
f 119/119/78 118/118/78 117/117/78
f 120/120/79 121/121/80 122/122/81
f 123/123/82 122/122/81 121/121/80
f 121/121/80 124/124/83 123/123/82
f 125/125/84 123/123/82 124/124/83
f 126/126/85 127/127/86 128/128/85
f 129/129/87 128/128/85 127/127/86
f 127/127/86 130/130/88 129/129/87
f 131/131/88 129/129/87 130/130/88
f 132/132/89 133/133/90 134/134/90
f 135/135/91 134/134/90 133/133/90
f 136/136/92 137/137/92 138/138/92
f 139/139/93 138/138/92 137/137/92
f 140/140/94 141/141/95 142/142/96
f 143/143/97 142/142/96 141/141/95
f 141/141/95 144/144/98 143/143/97
f 145/145/99 143/143/97 144/144/98
f 146/146/100 147/147/101 148/148/102
f 149/149/103 150/150/104 151/151/105
f 152/152/106 153/153/107 154/154/108
f 155/155/109 156/156/110 157/157/109
f 157/157/109 158/158/111 155/155/109
f 159/159/112 160/160/113 161/161/112
f 161/161/112 162/162/114 159/159/112
f 163/163/115 164/164/116 165/165/117
f 165/165/117 166/166/118 163/163/115
f 167/167/119 168/168/120 169/169/121
f 170/170/120 171/171/122 169/169/123
f 172/172/124 173/173/119 169/169/121
f 174/174/125 175/175/126 176/176/127
f 177/177/128 178/178/129 179/179/130
f 180/180/131 181/181/127 182/182/132
f 183/183/133 184/184/134 185/185/133
f 185/185/133 186/186/135 183/183/133
f 187/187/136 188/188/137 189/189/138
f 189/189/138 190/190/139 187/187/136
f 191/191/140 192/192/141 193/193/140
f 193/193/140 194/194/142 191/191/140
f 195/195/143 196/196/144 197/197/145
f 198/198/144 199/199/146 197/197/145
f 200/200/147 201/201/148 197/197/149
f 202/202/150 203/203/151 204/204/152
f 205/205/153 206/206/154 207/207/151
f 208/208/155 209/209/156 210/210/157
f 211/211/158 212/212/159 213/213/160
f 213/213/160 214/214/161 211/211/158
f 215/215/162 216/216/163 217/217/162
f 217/217/162 218/218/164 215/215/162
f 219/219/165 220/220/166 221/221/167
f 221/221/167 222/222/168 219/219/165
f 223/223/44 224/224/44 225/225/44
f 225/225/44 226/226/44 223/223/44
f 227/227/169 228/228/169 229/229/169
f 229/229/169 230/230/169 227/227/169
f 231/231/170 232/232/170 233/233/170
f 233/233/170 234/234/170 231/231/170
f 235/235/171 236/236/171 237/237/171
f 237/237/171 238/238/171 235/235/171
f 239/239/172 240/240/172 241/241/172
f 242/242/173 243/243/174 244/244/173
f 245/245/173 246/246/175 247/247/173
f 248/248/176 249/249/177 250/250/178
f 251/251/176 252/252/177 253/253/179
f 254/254/180 255/255/180 256/256/180
