# Blender v2.78 (sub 0) OBJ File: ''
# www.blender.org
mtllib barricade2.mtl
o Barricade2(m0)
v 2.042855 2.296989 -0.418757
v 2.058733 2.256755 -0.952276
v 2.432364 3.005634 -0.726885
v 1.485307 0.082059 -2.385783
v 0.992761 0.182255 -2.391134
v 1.624962 0.106330 -1.330538
v 1.150575 0.209681 -1.198703
v 0.526576 0.615347 -2.264293
v 0.666218 0.639607 -1.209036
v -1.344831 -0.067732 -2.926689
v -1.449077 -0.067733 -1.087608
v -1.449077 1.240560 -1.087608
v -1.344831 1.240560 -2.926689
v -1.449077 -0.067733 -1.087608
v 0.335077 -0.067733 -1.009717
v 0.335077 1.240560 -1.009716
v -1.449077 1.240560 -1.087608
v 0.335077 -0.067733 -1.009717
v 0.439322 -0.067732 -2.848798
v 0.439322 1.240560 -2.848797
v 0.335077 1.240560 -1.009716
v -1.507839 1.940187 3.374685
v 0.287954 1.940187 3.311969
v 0.204549 1.966837 0.923554
v -1.591245 1.966837 0.986276
v 0.287954 -0.067733 3.311969
v 0.204549 -0.067733 0.923554
v 0.204549 1.966837 0.923554
v 0.287954 1.940187 3.311969
v 0.204549 -0.067733 0.923554
v -1.591245 -0.067733 0.986276
v -1.591245 1.966837 0.986276
v 0.204549 1.966837 0.923554
v -1.591245 -0.067733 0.986276
v -1.507839 -0.067734 3.374684
v -1.507839 1.940187 3.374685
v -1.591245 1.966837 0.986276
v 1.702465 -0.095281 -1.216887
v 1.694445 -0.124650 -2.514924
v 1.624962 0.106330 -1.330538
v 1.485307 0.082059 -2.385783
v 1.694445 -0.124650 -2.514924
v 0.643078 -0.102776 -2.460717
v 1.485307 0.082059 -2.385783
v 0.992761 0.182255 -2.391134
v 0.200227 0.597523 -2.329377
v 0.526576 0.615347 -2.264293
v 0.666218 0.639607 -1.209036
v 0.526576 0.615347 -2.264293
v 0.369207 0.626881 -1.052532
v 0.200227 0.597523 -2.329377
v 0.369207 0.626881 -1.052532
v 0.834033 -0.072287 -1.017887
v 0.666218 0.639607 -1.209036
v 1.150575 0.209681 -1.198703
v 1.702465 -0.095281 -1.216887
v 1.624962 0.106330 -1.330538
v 2.769270 1.519882 1.939762
v 0.230596 -0.372509 0.829515
v 0.285519 -0.313325 0.571996
v 2.872658 1.653221 1.431777
v 0.597060 1.476039 0.903961
v 0.471983 1.476040 -1.169391
v -1.914598 1.476040 -1.044310
v -1.789530 1.476039 1.029041
v 0.597060 -0.067733 0.903960
v 0.471983 -0.067733 -1.169391
v 0.471983 1.476040 -1.169391
v 0.597060 1.476039 0.903961
v 0.471983 -0.067733 -1.169391
v -1.914598 -0.067733 -1.044311
v -1.914598 1.476040 -1.044310
v 0.471983 1.476040 -1.169391
v -1.914598 -0.067733 -1.044311
v -1.789530 -0.067733 1.029041
v -1.789530 1.476039 1.029041
v -1.914598 1.476040 -1.044310
v -1.789530 -0.067733 1.029041
v 0.597060 -0.067733 0.903960
v 0.597060 1.476039 0.903961
v -1.789530 1.476039 1.029041
v 1.460525 0.082058 1.143851
v 0.978938 0.182254 1.040420
v 1.386988 0.106329 2.205757
v 0.895846 0.209681 2.240363
v 0.496818 0.615346 1.071768
v 0.423285 0.639607 2.133667
v 1.460525 0.082058 1.143851
v 1.386988 0.106329 2.205757
v 1.691211 -0.124650 1.058998
v 1.440286 -0.095282 2.332585
v 1.691211 -0.124650 1.058998
v 0.650153 -0.102776 0.902507
v 1.460525 0.082058 1.143851
v 0.978938 0.182254 1.040420
v 0.189997 0.597522 0.942928
v 0.496818 0.615346 1.071768
v 0.423285 0.639607 2.133667
v 0.496818 0.615346 1.071768
v 0.101021 0.626881 2.227825
v 0.189997 0.597522 0.942928
v 0.101021 0.626881 2.227825
v 0.549613 -0.072288 2.354454
v 0.423285 0.639607 2.133667
v 0.895846 0.209681 2.240363
v 1.440286 -0.095282 2.332585
v 1.386988 0.106329 2.205757
v 1.902849 -0.027082 -0.672892
v 1.798847 -0.120058 -0.640133
v 1.965628 -0.218433 -1.909616
v 2.033607 -0.157664 -1.931033
v 0.548432 2.214724 -0.873789
v 0.632990 2.111906 -2.129939
v 0.565017 2.051133 -2.108522
v 0.406985 2.088271 -0.829239
v 1.902849 -0.027082 -0.672892
v 2.033607 -0.157664 -1.931033
v 0.632990 2.111906 -2.129939
v 0.548432 2.214724 -0.873789
v 2.033607 -0.157664 -1.931033
v 1.965628 -0.218433 -1.909616
v 0.565017 2.051133 -2.108522
v 0.632990 2.111906 -2.129939
v 1.965628 -0.218433 -1.909616
v 1.798847 -0.120058 -0.640133
v 0.406985 2.088271 -0.829239
v 0.565017 2.051133 -2.108522
v 1.798847 -0.120058 -0.640133
v 1.902849 -0.027082 -0.672892
v 0.548432 2.214724 -0.873789
v 0.406985 2.088271 -0.829239
v 1.419853 0.058396 0.701019
v 0.119885 3.137187 -0.388217
v -0.113653 2.978979 -0.754793
v 1.186315 -0.099804 0.334448
v 1.907492 0.058395 0.390372
v 1.673955 -0.099804 0.023789
v 0.373982 2.978979 -1.065452
v 0.607521 3.137187 -0.698870
v 1.186315 -0.099804 0.334448
v -0.113653 2.978979 -0.754793
v 0.373982 2.978979 -1.065452
v 1.673955 -0.099804 0.023789
v -0.113653 2.978979 -0.754793
v 0.119885 3.137187 -0.388217
v 0.607521 3.137187 -0.698870
v 0.373982 2.978979 -1.065452
v 0.119885 3.137187 -0.388217
v 1.419853 0.058396 0.701019
v 1.907492 0.058395 0.390372
v 0.607521 3.137187 -0.698870
v -0.050069 -0.325308 -0.375491
v 2.042855 2.296989 -0.418757
v 1.699601 2.545038 -0.724917
v -0.235981 -0.193575 -0.532883
v -0.037534 -0.352889 -0.643674
v -0.235981 -0.193575 -0.532883
v 1.699601 2.545038 -0.724917
v 2.058733 2.256755 -0.952276
v 2.042855 2.296989 -0.418757
v -0.050069 -0.325308 -0.375491
v -0.037534 -0.352889 -0.643674
v 2.058733 2.256755 -0.952276
v 0.439322 1.240560 -2.848797
v -1.344831 1.240560 -2.926689
v -1.449077 1.240560 -1.087608
v 0.335077 1.240560 -1.009716
v 0.439322 -0.067732 -2.848798
v -1.344831 -0.067732 -2.926689
v -1.344831 1.240560 -2.926689
v 0.439322 1.240560 -2.848797
v 0.287954 1.940187 3.311969
v -1.507839 -0.067734 3.374684
v 0.287954 -0.067733 3.311969
v 0.287954 1.940187 3.311969
v -1.507839 1.940187 3.374685
v -1.507839 -0.067734 3.374684
v 2.826998 1.773570 1.731708
v 2.541974 1.930626 1.710122
v 2.872658 1.653221 1.431777
v 2.769270 1.519882 1.939762
v 2.541974 1.930626 1.710122
v 2.872658 1.653221 1.431777
v 2.769270 1.519882 1.939762
v 2.872658 1.653221 1.431777
v 2.541974 1.930626 1.710122
v 3.338881 2.171294 1.947006
v 2.541974 1.930626 1.710122
v 2.769270 1.519882 1.939762
v 3.338881 2.171294 1.947006
v 2.769270 1.519882 1.939762
v 2.872658 1.653221 1.431777
v 3.338881 2.171294 1.947006
v 0.230596 -0.372509 0.829515
v 2.769270 1.519882 1.939762
v 2.541974 1.930626 1.710122
v 0.105466 -0.155188 0.712029
v 0.285519 -0.313325 0.571996
v 0.105466 -0.155188 0.712029
v 2.541974 1.930626 1.710122
v 2.872658 1.653221 1.431777
v 2.015198 2.465223 -0.704941
v 1.699601 2.545038 -0.724917
v 2.058733 2.256755 -0.952276
v 2.042855 2.296989 -0.418757
v 1.699601 2.545038 -0.724917
v 2.058733 2.256755 -0.952276
v 2.042855 2.296989 -0.418757
v 2.058733 2.256755 -0.952276
v 1.699601 2.545038 -0.724917
v 2.432364 3.005634 -0.726885
v 1.699601 2.545038 -0.724917
v 2.042855 2.296989 -0.418757
v 2.432364 3.005634 -0.726885
vt 0.7520 0.1731
vt 0.7890 0.1729
vt 0.7677 0.2507
vt 0.9294 0.7765
vt 0.9294 0.8745
vt 0.8314 0.7765
vt 0.8314 0.8745
vt 0.9294 0.9725
vt 0.8314 0.9725
vt 0.3765 0.7529
vt 0.5961 0.7529
vt 0.5961 1.0000
vt 0.3765 1.0000
vt 0.3765 0.7529
vt 0.5961 0.7529
vt 0.5961 1.0000
vt 0.3765 1.0000
vt 0.3765 0.7529
vt 0.5961 0.7529
vt 0.5961 1.0000
vt 0.3765 1.0000
vt 0.6000 0.7529
vt 0.8157 0.7529
vt 0.8157 0.9961
vt 0.6000 0.9961
vt 0.3765 0.7529
vt 0.5961 0.7529
vt 0.5961 0.9961
vt 0.3765 0.9961
vt 0.3765 0.7529
vt 0.5961 0.7529
vt 0.5961 0.9961
vt 0.3765 0.9961
vt 0.3765 0.7529
vt 0.5961 0.7529
vt 0.5961 0.9961
vt 0.3765 0.9961
vt 0.8196 0.7529
vt 0.9412 0.7529
vt 0.8314 0.7765
vt 0.9294 0.7765
vt 0.9412 0.7529
vt 0.9412 0.8745
vt 0.9294 0.7765
vt 0.9294 0.8745
vt 0.9412 0.9961
vt 0.9294 0.9725
vt 0.8314 0.9725
vt 0.9294 0.9725
vt 0.8196 0.9961
vt 0.9412 0.9961
vt 0.8196 0.9961
vt 0.8196 0.8745
vt 0.8314 0.9725
vt 0.8314 0.8745
vt 0.8196 0.7529
vt 0.8314 0.7765
vt 0.9962 0.0081
vt 0.9962 0.4943
vt 0.9649 0.4943
vt 0.9649 0.0081
vt 0.6000 0.7529
vt 0.8157 0.7529
vt 0.8157 0.9961
vt 0.6000 0.9961
vt 0.3765 0.7529
vt 0.5961 0.7529
vt 0.5961 0.9961
vt 0.3765 0.9961
vt 0.3765 0.7529
vt 0.5961 0.7529
vt 0.5961 0.9961
vt 0.3765 0.9961
vt 0.3765 0.7529
vt 0.5961 0.7529
vt 0.5961 0.9961
vt 0.3765 0.9961
vt 0.3765 0.7529
vt 0.5961 0.7529
vt 0.5961 0.9961
vt 0.3765 0.9961
vt 0.9294 0.7765
vt 0.9294 0.8745
vt 0.8314 0.7765
vt 0.8314 0.8745
vt 0.9294 0.9725
vt 0.8314 0.9725
vt 0.9294 0.7765
vt 0.8314 0.7765
vt 0.9412 0.7529
vt 0.8196 0.7529
vt 0.9412 0.7529
vt 0.9412 0.8745
vt 0.9294 0.7765
vt 0.9294 0.8745
vt 0.9412 0.9961
vt 0.9294 0.9725
vt 0.8314 0.9725
vt 0.9294 0.9725
vt 0.8196 0.9961
vt 0.9412 0.9961
vt 0.8196 0.9961
vt 0.8196 0.8745
vt 0.8314 0.9725
vt 0.8314 0.8745
vt 0.8196 0.7529
vt 0.8314 0.7765
vt 0.6337 0.6265
vt 0.6337 0.6265
vt 0.6337 0.5064
vt 0.6337 0.5064
vt 0.5045 0.6265
vt 0.5045 0.5064
vt 0.5045 0.5064
vt 0.5045 0.6265
vt 0.6337 0.6265
vt 0.6337 0.5064
vt 0.5045 0.5064
vt 0.5045 0.6265
vt 0.6337 0.5064
vt 0.6337 0.5064
vt 0.5045 0.5064
vt 0.5045 0.5064
vt 0.6337 0.5064
vt 0.6337 0.6265
vt 0.5045 0.6265
vt 0.5045 0.5064
vt 0.6337 0.6265
vt 0.6337 0.6265
vt 0.5045 0.6265
vt 0.5045 0.6265
vt 0.9603 0.4956
vt 0.8864 0.4956
vt 0.8864 0.0044
vt 0.9603 0.0044
vt 0.8872 0.4910
vt 0.9621 0.4915
vt 0.9614 0.0138
vt 0.8866 0.0182
vt 0.9603 0.0044
vt 0.9603 0.4956
vt 0.8864 0.4956
vt 0.8864 0.0044
vt 0.9603 0.0044
vt 0.9603 0.4956
vt 0.8864 0.4956
vt 0.8864 0.0044
vt 0.9603 0.0044
vt 0.9603 0.4956
vt 0.8864 0.4956
vt 0.8864 0.0044
vt 0.9932 0.4941
vt 0.9932 0.0083
vt 0.9659 0.0083
vt 0.9659 0.4941
vt 0.9611 0.0000
vt 1.0000 0.0000
vt 1.0000 0.4855
vt 0.9611 0.4855
vt 0.9962 0.0081
vt 0.9962 0.4943
vt 0.9649 0.4943
vt 0.9649 0.0081
vt 0.6000 0.7529
vt 0.8157 0.7529
vt 0.8157 0.9961
vt 0.6000 0.9961
vt 0.3765 0.7529
vt 0.5961 0.7529
vt 0.5961 1.0000
vt 0.3765 1.0000
vt 0.8127 0.9932
vt 0.5998 0.7630
vt 0.8166 0.7623
vt 0.8127 0.9932
vt 0.5998 0.9958
vt 0.5998 0.7630
vt 0.7520 0.1731
vt 0.7677 0.2507
vt 0.7622 0.2500
vt 0.7677 0.2507
vt 0.7622 0.2500
vt 0.7677 0.2507
vt 0.7622 0.2500
vt 0.7520 0.1731
vt 0.7890 0.1729
vt 0.7677 0.2507
vt 0.7520 0.1731
vt 0.7890 0.1729
vt 0.7677 0.2507
vt 0.7520 0.1731
vt 0.7890 0.1729
vt 0.7677 0.2507
vt 0.9932 0.4941
vt 0.9932 0.0083
vt 0.9659 0.0083
vt 0.9659 0.4941
vt 0.9611 0.0000
vt 1.0000 0.0000
vt 1.0000 0.4855
vt 0.9611 0.4855
vt 0.7520 0.1731
vt 0.7677 0.2507
vt 0.7622 0.2500
vt 0.7677 0.2507
vt 0.7622 0.2500
vt 0.7677 0.2507
vt 0.7622 0.2500
vt 0.7520 0.1731
vt 0.7890 0.1729
vt 0.7677 0.2507
vt 0.7520 0.1731
vt 0.7890 0.1729
vt 0.7677 0.2507
vn 0.5493 0.0604 0.8335
vn 0.6100 -0.0668 -0.7896
vn 0.8857 -0.4603 0.0611
vn 0.1996 0.9787 -0.0489
vn 0.3648 0.9285 -0.0696
vn 0.5236 0.8473 -0.0888
vn 0.6615 0.7427 -0.1046
vn 0.6614 0.7427 -0.1046
vn -0.9984 0.0000 -0.0566
vn -0.0436 -0.0000 0.9990
vn 0.9984 -0.0000 0.0566
vn 0.0004 0.9999 0.0111
vn 0.9994 0.0000 -0.0349
vn -0.0349 0.0000 -0.9994
vn -0.9994 0.0000 0.0349
vn 0.9359 0.3520 -0.0137
vn 0.8249 0.5620 -0.0612
vn 0.6655 0.7390 -0.1051
vn -0.0340 0.5046 -0.8627
vn 0.0147 0.3001 -0.9538
vn 0.0069 0.3485 -0.9373
vn 0.0779 0.2727 -0.9589
vn 0.0929 0.3177 -0.9436
vn 0.1544 0.4271 -0.8909
vn -0.0513 0.9986 -0.0162
vn 0.4295 0.3272 0.8417
vn 0.3015 0.3264 0.8959
vn 0.3424 0.3181 0.8841
vn 0.2705 0.4053 0.8732
vn 0.2786 0.4537 0.8465
vn 0.3328 0.5569 0.7610
vn 0.6155 -0.7854 -0.0650
vn 0.6112 -0.7899 -0.0512
vn 0.6197 -0.7808 -0.0788
vn -0.0000 1.0000 0.0000
vn 0.9982 -0.0000 -0.0602
vn -0.0523 0.0000 -0.9986
vn -0.9982 -0.0000 0.0602
vn 0.0523 -0.0000 0.9986
vn 0.2054 0.9787 -0.0081
vn 0.3713 0.9285 0.0045
vn 0.5308 0.8473 0.0174
vn 0.6690 0.7427 0.0294
vn 0.6731 0.7390 0.0297
vn 0.8205 0.5620 0.1045
vn 0.9198 0.3521 0.1731
vn 0.1387 0.5046 -0.8521
vn 0.2045 0.3001 -0.9317
vn 0.1936 0.3485 -0.9171
vn 0.2675 0.2727 -0.9242
vn 0.2792 0.3177 -0.9061
vn 0.3289 0.4271 -0.8423
vn -0.0471 0.9986 -0.0261
vn 0.2531 0.3273 0.9104
vn 0.1169 0.3264 0.9380
vn 0.1592 0.3181 0.9346
vn 0.0910 0.4053 0.9096
vn 0.1042 0.4537 0.8850
vn 0.1744 0.5569 0.8120
vn 0.6845 -0.7144 0.1453
vn 0.6844 -0.7144 0.1453
vn -0.6810 0.7247 -0.1052
vn 0.8523 0.5225 0.0243
vn 0.8492 0.5270 0.0336
vn 0.8523 0.5226 0.0244
vn 0.8552 0.5180 0.0152
vn -0.1484 -0.1769 -0.9730
vn -0.8428 -0.5325 -0.0789
vn -0.8413 -0.5362 -0.0690
vn -0.8441 -0.5287 -0.0889
vn 0.1484 0.1768 0.9730
vn -0.8073 -0.1379 0.5738
vn 0.8073 0.1379 -0.5738
vn -0.4757 -0.4650 -0.7467
vn -0.1838 0.9397 -0.2885
vn 0.4757 0.4650 0.7467
vn -0.4442 0.3701 0.8159
vn -0.4520 0.3741 0.8098
vn -0.4364 0.3661 0.8219
vn -0.3771 0.2007 -0.9042
vn -0.3584 0.1892 -0.9142
vn -0.3955 0.2120 -0.8936
vn 0.7802 -0.6197 0.0851
vn 0.7785 -0.6197 0.1001
vn 0.7817 -0.6197 0.0700
vn 0.0436 0.0000 -0.9990
vn 0.0349 -0.0000 0.9994
vn -0.7525 -0.5849 -0.3027
vn -0.4416 -0.8435 -0.3059
vn -0.8859 -0.4611 0.0502
vn -0.7546 -0.3048 -0.5811
vn -0.8859 -0.4611 0.0501
vn -0.7546 -0.3048 -0.5810
vn 0.7170 0.0464 -0.6955
vn -0.3297 0.9296 0.1648
vn -0.0030 0.7065 -0.7077
vn 0.3915 -0.3517 0.8503
vn -0.3538 0.2996 0.8860
vn 0.3914 -0.3518 0.8503
vn 0.7528 -0.6580 -0.0195
vn -0.5025 0.1811 0.8454
vn -0.5081 0.1886 0.8404
vn -0.4969 0.1736 0.8503
vn -0.1616 0.5708 -0.8050
vn -0.1441 0.5590 -0.8165
vn -0.1791 0.5823 -0.7930
vn -0.6118 -0.7897 0.0451
vn -0.2488 -0.9660 0.0706
vn -0.7355 -0.5763 0.3562
vn -0.6119 -0.7897 0.0451
vn -0.7108 -0.6343 -0.3042
vn -0.7355 -0.5763 0.3563
vn -0.7108 -0.6343 -0.3041
vn 0.6100 -0.0668 -0.7895
vn -0.5301 0.8430 -0.0909
vn -0.2478 0.3905 -0.8866
vn 0.5493 0.0605 0.8334
vn -0.3259 0.5219 0.7883
usemtl Doodads0
s 1
f 1/1/1 2/2/2 3/3/3
f 4/4/4 5/5/5 6/6/4
f 7/7/6 6/6/4 5/5/5
f 5/5/5 8/8/7 7/7/6
f 9/9/8 7/7/6 8/8/7
f 10/10/9 11/11/9 12/12/9
f 12/12/9 13/13/9 10/10/9
f 14/14/10 15/15/10 16/16/10
f 16/16/10 17/17/10 14/14/10
f 18/18/11 19/19/11 20/20/11
f 20/20/11 21/21/11 18/18/11
f 22/22/12 23/23/12 24/24/12
f 24/24/12 25/25/12 22/22/12
f 26/26/13 27/27/13 28/28/13
f 28/28/13 29/29/13 26/26/13
f 30/30/14 31/31/14 32/32/14
f 32/32/14 33/33/14 30/30/14
f 34/34/15 35/35/15 36/36/15
f 36/36/15 37/37/15 34/34/15
f 38/38/16 39/39/17 40/40/17
f 41/41/18 40/40/17 39/39/17
f 42/42/19 43/43/20 44/44/21
f 45/45/22 44/44/21 43/43/20
f 43/43/20 46/46/23 45/45/22
f 47/47/24 45/45/22 46/46/23
f 48/48/25 49/49/25 50/50/25
f 51/51/25 50/50/25 49/49/25
f 52/52/26 53/53/27 54/54/28
f 55/55/29 54/54/28 53/53/27
f 53/53/27 56/56/30 55/55/29
f 57/57/31 55/55/29 56/56/30
f 58/58/32 59/59/33 60/60/32
f 60/60/32 61/61/34 58/58/32
f 62/62/35 63/63/35 64/64/35
f 64/64/35 65/65/35 62/62/35
f 66/66/36 67/67/36 68/68/36
f 68/68/36 69/69/36 66/66/36
f 70/70/37 71/71/37 72/72/37
f 72/72/37 73/73/37 70/70/37
f 74/74/38 75/75/38 76/76/38
f 76/76/38 77/77/38 74/74/38
f 78/78/39 79/79/39 80/80/39
f 80/80/39 81/81/39 78/78/39
f 82/82/40 83/83/41 84/84/40
f 85/85/42 84/84/40 83/83/41
f 83/83/41 86/86/43 85/85/42
f 87/87/43 85/85/42 86/86/43
f 88/88/44 89/89/45 90/90/45
f 91/91/46 90/90/45 89/89/45
f 92/92/47 93/93/48 94/94/49
f 95/95/50 94/94/49 93/93/48
f 93/93/48 96/96/51 95/95/50
f 97/97/52 95/95/50 96/96/51
f 98/98/53 99/99/53 100/100/53
f 101/101/53 100/100/53 99/99/53
f 102/102/54 103/103/55 104/104/56
f 105/105/57 104/104/56 103/103/55
f 103/103/55 106/106/58 105/105/57
f 107/107/59 105/105/57 106/106/58
f 108/108/60 109/109/60 110/110/61
f 110/110/61 111/111/61 108/108/60
f 112/112/62 113/113/62 114/114/62
f 114/114/62 115/115/62 112/112/62
f 116/116/63 117/117/64 118/118/65
f 118/118/65 119/119/66 116/116/63
f 120/120/67 121/121/67 122/122/67
f 122/122/67 123/123/67 120/120/67
f 124/124/68 125/125/69 126/126/68
f 126/126/68 127/127/70 124/124/68
f 128/128/71 129/129/71 130/130/71
f 130/130/71 131/131/71 128/128/71
f 132/132/72 133/133/72 134/134/72
f 134/134/72 135/135/72 132/132/72
f 136/136/73 137/137/73 138/138/73
f 138/138/73 139/139/73 136/136/73
f 140/140/74 141/141/74 142/142/74
f 142/142/74 143/143/74 140/140/74
f 144/144/75 145/145/75 146/146/75
f 146/146/75 147/147/75 144/144/75
f 148/148/76 149/149/76 150/150/76
f 150/150/76 151/151/76 148/148/76
f 152/152/77 153/153/78 154/154/77
f 154/154/77 155/155/79 152/152/77
f 156/156/80 157/157/81 158/158/80
f 158/158/80 159/159/82 156/156/80
f 160/160/83 161/161/84 162/162/83
f 162/162/83 163/163/85 160/160/83
f 164/164/35 165/165/35 166/166/35
f 166/166/35 167/167/35 164/164/35
f 168/168/86 169/169/86 170/170/86
f 170/170/86 171/171/86 168/168/86
f 172/172/87 173/173/87 174/174/87
f 175/175/87 176/176/87 177/177/87
f 178/178/88 179/179/89 180/180/90
f 178/178/88 181/181/91 182/182/89
f 178/178/88 183/183/92 184/184/93
f 185/185/94 186/186/95 187/187/96
f 188/188/95 189/189/97 190/190/98
f 191/191/99 192/192/94 193/193/100
f 194/194/101 195/195/102 196/196/101
f 196/196/101 197/197/103 194/194/101
f 198/198/104 199/199/105 200/200/104
f 200/200/104 201/201/106 198/198/104
f 202/202/107 203/203/108 204/204/109
f 202/202/110 205/205/111 206/206/108
f 202/202/110 207/207/112 208/208/113
f 209/209/114 210/210/115 211/211/116
f 212/212/115 213/213/117 214/214/118
