# Blender v2.78 (sub 0) OBJ File: ''
# www.blender.org
mtllib hay01.mtl
o Hay1
v -0.026100 0.012698 -2.205517
v -1.693528 0.012698 -1.402522
v -1.128619 0.819118 -0.940387
v -0.017002 0.819118 -1.475711
v -0.007903 1.909905 -0.745912
v -0.563714 1.909905 -0.478249
v 0.001192 2.321654 -0.016112
v -0.563714 1.909905 -0.478249
v -0.715936 1.909905 0.119577
v -1.433073 0.819118 0.255262
v -1.128619 0.819118 -0.940387
v -1.693528 0.012698 -1.402522
v -2.150206 0.012697 0.390952
v -0.715936 1.909905 0.119577
v -0.327585 1.909905 0.635162
v -0.656363 0.819117 1.286442
v -1.433073 0.819118 0.255262
v -2.150206 0.012697 0.390952
v -0.985142 0.012697 1.937718
v -0.327585 1.909905 0.635162
v 0.317867 1.909905 0.641466
v 0.634542 0.819117 1.299045
v -0.656363 0.819117 1.286442
v -0.985142 0.012697 1.937718
v 0.951215 0.012697 1.956622
v 0.317867 1.909905 0.641466
v 0.708484 1.909905 0.163986
v 1.415770 0.819118 0.344081
v 0.634542 0.819117 1.299045
v 0.951215 0.012697 1.956622
v 2.123060 0.012697 0.524177
v 0.708484 1.909905 0.163986
v 0.574410 1.909905 -0.467419
v 1.147629 0.819118 -0.918727
v 1.415770 0.819118 0.344081
v 2.123060 0.012697 0.524177
v 1.720846 0.012698 -1.370039
v 0.574410 1.909905 -0.467419
v -0.007903 1.909905 -0.745912
v -0.017002 0.819118 -1.475711
v 1.147629 0.819118 -0.918727
v 1.720846 0.012698 -1.370039
v -0.026100 0.012698 -2.205517
vt 0.9368 0.6224
vt 0.9364 0.5059
vt 0.6971 0.5070
vt 0.6974 0.6218
vt 0.7945 0.6211
vt 0.7944 0.5058
vt 0.7043 0.5625
vt 0.7945 0.6211
vt 0.7944 0.5058
vt 0.6971 0.5070
vt 0.6974 0.6218
vt 0.9368 0.6224
vt 0.9364 0.5059
vt 0.7945 0.6211
vt 0.7944 0.5058
vt 0.6971 0.5070
vt 0.6974 0.6218
vt 0.9368 0.6224
vt 0.9364 0.5059
vt 0.7945 0.6211
vt 0.7944 0.5058
vt 0.6971 0.5070
vt 0.6974 0.6218
vt 0.9368 0.6224
vt 0.9364 0.5059
vt 0.7945 0.6211
vt 0.7944 0.5058
vt 0.6971 0.5070
vt 0.6974 0.6218
vt 0.9368 0.6224
vt 0.9364 0.5059
vt 0.7945 0.6211
vt 0.7944 0.5058
vt 0.6971 0.5070
vt 0.6974 0.6218
vt 0.9368 0.6224
vt 0.9364 0.5059
vt 0.7945 0.6211
vt 0.7944 0.5058
vt 0.6971 0.5070
vt 0.6974 0.6218
vt 0.9368 0.6224
vt 0.9364 0.5059
vn -0.1180 0.6671 -0.7356
vn -0.6426 0.6666 -0.3778
vn -0.5285 0.6110 -0.5894
vn 0.1247 0.6100 -0.7825
vn -0.0803 0.7022 -0.7074
vn -0.5974 0.7018 -0.3880
vn -0.0021 1.0000 -0.0017
vn -0.6783 0.7015 0.2186
vn -0.7906 0.6115 0.0318
vn -0.6991 0.6656 0.2612
vn -0.6783 0.7015 0.2187
vn -0.2456 0.7018 0.6687
vn -0.4668 0.6104 0.6399
vn -0.2238 0.6659 0.7116
vn -0.2455 0.7018 0.6687
vn 0.3718 0.7022 0.6072
vn 0.2177 0.6100 0.7619
vn -0.2239 0.6660 0.7116
vn 0.4178 0.6671 0.6168
vn 0.7072 0.7015 0.0885
vn -0.0020 1.0000 -0.0017
vn 0.7300 0.6115 0.3053
vn 0.7440 0.6656 0.0587
vn 0.5052 0.7018 -0.5023
vn 0.6935 0.6104 -0.3827
vn 0.5036 0.6659 -0.5504
vn -0.0804 0.7022 -0.7074
vn 0.5036 0.6660 -0.5503
usemtl Doodads0
s 1
f 1/1/1 2/2/2 3/3/3
f 1/1/1 3/3/3 4/4/4
f 4/4/4 3/3/3 5/5/5
f 5/5/5 3/3/3 6/6/6
f 5/5/5 6/6/6 7/7/7
f 8/8/6 9/9/8 7/7/7
f 8/8/6 10/10/9 9/9/8
f 11/11/3 10/10/9 8/8/6
f 12/12/2 10/10/9 11/11/3
f 12/12/2 13/13/10 10/10/9
f 14/14/11 15/15/12 7/7/7
f 14/14/11 16/16/13 15/15/12
f 17/17/9 16/16/13 14/14/11
f 18/18/10 16/16/13 17/17/9
f 18/18/10 19/19/14 16/16/13
f 20/20/15 21/21/16 7/7/7
f 20/20/15 22/22/17 21/21/16
f 23/23/13 22/22/17 20/20/15
f 24/24/18 22/22/17 23/23/13
f 24/24/18 25/25/19 22/22/17
f 26/26/16 27/27/20 7/7/21
f 26/26/16 28/28/22 27/27/20
f 29/29/17 28/28/22 26/26/16
f 30/30/19 28/28/22 29/29/17
f 30/30/19 31/31/23 28/28/22
f 32/32/20 33/33/24 7/7/7
f 32/32/20 34/34/25 33/33/24
f 35/35/22 34/34/25 32/32/20
f 36/36/23 34/34/25 35/35/22
f 36/36/23 37/37/26 34/34/25
f 38/38/24 39/39/27 7/7/7
f 38/38/24 40/40/4 39/39/27
f 41/41/25 40/40/4 38/38/24
f 42/42/28 40/40/4 41/41/25
f 42/42/28 43/43/1 40/40/4
