# Blender v2.78 (sub 0) OBJ File: ''
# www.blender.org
mtllib pub.mtl
o Inn(m0)
v 4.005771 5.924672 -0.854510
v 0.883792 5.924672 -3.941278
v 1.805321 8.645330 -2.185268
v 0.481295 0.605750 5.550896
v 5.638280 0.605751 0.393909
v 4.959638 2.782576 0.648389
v 0.285489 2.782575 5.322543
v -5.908609 0.605751 -0.300977
v -5.361003 2.782576 -0.323949
v -0.751607 0.605752 -5.457993
v -0.686845 2.782577 -4.998098
v -5.908609 0.605751 -0.300977
v -0.751607 0.605752 -5.457993
v -1.223600 -2.861953 -6.217113
v -7.430854 -2.861954 -0.009856
v 0.481295 0.605750 5.550896
v -0.229581 -2.861955 7.191424
v 5.638280 0.605751 0.393909
v 5.977684 -2.861954 0.984170
v 3.142390 0.594360 -1.561396
v 4.959638 2.782576 0.648389
v 5.638280 0.605751 0.393909
v -0.686845 2.782577 -4.998098
v 1.556369 0.594360 -3.147409
v -0.751607 0.605752 -5.457993
v 0.442662 5.574396 6.436434
v 3.435898 8.407290 3.380297
v -6.081417 5.574397 -0.087629
v -3.566215 8.407292 -2.977134
v -0.393620 5.574398 -6.022887
v 6.130463 5.574397 0.501184
v -4.423803 1.945864 2.279570
v -3.250526 2.109202 1.310049
v -3.492432 2.695424 1.036847
v -4.236609 2.582249 1.678974
v -4.236609 2.582249 1.678974
v -3.492432 2.695424 1.036847
v -3.216790 7.160116 1.108954
v -3.811620 7.022049 1.716041
v -4.529826 2.695179 0.129768
v -5.128686 2.581999 0.696647
v -4.758424 7.045674 0.784547
v -4.166881 7.183740 0.173890
v -3.492432 2.695424 1.036847
v -5.319477 -2.410389 -0.695760
v -6.735740 -2.609642 1.119845
v -5.690065 1.948047 1.019096
v -4.717838 2.109202 -0.319970
v -4.717838 2.109202 -0.319970
v -5.690065 1.948047 1.019096
v -5.128686 2.581999 0.696647
v -4.529826 2.695179 0.129768
v -6.735740 -2.609642 1.119845
v -5.158032 -2.579450 2.484184
v -4.423803 1.945864 2.279570
v -5.690065 1.948047 1.019096
v -5.690065 1.948047 1.019096
v -4.423803 1.945864 2.279570
v -4.236609 2.582249 1.678974
v -5.128686 2.581999 0.696647
v -5.128686 2.581999 0.696647
v -4.236609 2.582249 1.678974
v -3.811620 7.022049 1.716041
v -4.758424 7.045674 0.784547
v -3.811620 7.022049 1.716041
v -3.216790 7.160116 1.108954
v -3.079831 7.393047 1.123231
v -3.866756 7.210797 1.927437
v -3.216790 7.160116 1.108954
v -4.166881 7.183740 0.173890
v -4.200396 7.420718 0.020899
v -3.079831 7.393047 1.123231
v -4.166881 7.183740 0.173890
v -4.758424 7.045674 0.784547
v -4.981341 7.238469 0.831743
v -4.200396 7.420718 0.020899
v -4.758424 7.045674 0.784547
v -3.811620 7.022049 1.716041
v -3.866756 7.210797 1.927437
v -4.981341 7.238469 0.831743
v -3.866756 7.210797 1.927437
v -3.079831 7.393047 1.123231
v -3.195038 7.925734 1.210305
v -3.988964 7.743484 2.026143
v -3.079831 7.393047 1.123231
v -4.200396 7.420718 0.020899
v -4.339974 7.953404 0.085560
v -3.195038 7.925734 1.210305
v -4.200396 7.420718 0.020899
v -4.981341 7.238469 0.831743
v -5.125620 7.771155 0.910826
v -4.339974 7.953404 0.085560
v -4.981341 7.238469 0.831743
v -3.866756 7.210797 1.927437
v -3.988964 7.743484 2.026143
v -5.125620 7.771155 0.910826
v -3.988964 7.743484 2.026143
v -3.195038 7.925734 1.210305
v -3.422594 8.093351 1.261281
v -4.026333 7.955244 1.883916
v -3.195038 7.925734 1.210305
v -4.339974 7.953404 0.085560
v -4.408436 8.116975 0.293443
v -3.422594 8.093351 1.261281
v -4.339974 7.953404 0.085560
v -5.125620 7.771155 0.910826
v -5.006355 7.978909 0.922810
v -4.408436 8.116975 0.293443
v -5.125620 7.771155 0.910826
v -3.988964 7.743484 2.026143
v -4.026333 7.955244 1.883916
v -5.006355 7.978909 0.922810
v 5.977684 -2.861954 0.984170
v 3.136787 -2.861954 -1.856723
v 5.638280 0.605751 0.393909
v 3.142390 0.594360 -1.561396
v 1.428116 -2.861953 -3.565389
v -1.223600 -2.861953 -6.217113
v -0.751607 0.605752 -5.457993
v 1.556369 0.594360 -3.147409
v 1.556369 0.594360 -3.147409
v 3.222296 0.181819 -1.596097
v 1.585968 0.181819 -3.232424
v 3.142390 0.594360 -1.561396
v -5.950176 2.263160 -0.270143
v 0.515305 2.263159 6.195328
v 0.442662 5.574396 6.436434
v -6.081417 5.574397 -0.087629
v 6.130463 5.574397 0.501184
v 0.442662 5.574396 6.436434
v 0.515305 2.263159 6.195328
v 6.014060 2.263160 0.560387
v 2.087740 8.798397 -2.420582
v 0.774835 5.795516 -4.012224
v -0.104607 8.194469 -0.019537
v 4.074408 5.795516 -0.752256
v 1.556369 0.594360 -3.147409
v 1.670901 -2.861953 -3.808653
v 1.585968 0.181819 -3.232424
v 3.142390 0.594360 -1.561396
v 3.222296 0.181819 -1.596097
v 3.379572 -2.861953 -2.099982
v 1.585968 0.181819 -3.232424
v 3.222296 0.181819 -1.596097
v 1.670901 -2.861953 -3.808653
v 3.379572 -2.861953 -2.099982
v 3.142390 0.594360 -1.561396
v 3.136787 -2.861954 -1.856723
v 3.379572 -2.861953 -2.099982
v 1.428116 -2.861953 -3.565389
v 1.556369 0.594360 -3.147409
v 1.670901 -2.861953 -3.808653
v -0.451393 2.263161 -5.905094
v -5.950176 2.263160 -0.270143
v 0.515305 2.263159 6.195328
v 0.515305 2.263159 6.195328
v 6.014060 2.263160 0.560387
v -0.451393 2.263161 -5.905094
v 0.442662 5.574396 6.436434
v 6.130463 5.574397 0.501184
v 3.435898 8.407290 3.380297
v 6.014060 2.263160 0.560387
v -0.451393 2.263161 -5.905094
v 6.130463 5.574397 0.501184
v -0.393620 5.574398 -6.022887
v -0.393620 5.574398 -6.022887
v -6.081417 5.574397 -0.087629
v -3.566215 8.407292 -2.977134
v -0.451393 2.263161 -5.905094
v -5.950176 2.263160 -0.270143
v -6.081417 5.574397 -0.087629
v -0.393620 5.574398 -6.022887
v -4.026333 7.955244 1.883916
v -3.422594 8.093351 1.261281
v -4.408436 8.116975 0.293443
v -5.006355 7.978909 0.922810
v -5.158032 -2.579450 2.484184
v -3.602660 -2.410390 1.280350
v -3.250526 2.109202 1.310049
v -4.423803 1.945864 2.279570
v 2.087740 8.798397 -2.420582
v 0.774835 5.795516 -4.012224
v -0.104607 8.194469 -0.019537
v 4.074408 5.795516 -0.752256
vt 0.0700 0.3974
vt 0.4256 0.3974
vt 0.2517 0.6191
vt 0.0000 0.3606
vt 0.4980 0.3606
vt 0.4980 0.5191
vt 0.0000 0.5192
vt 0.4980 0.3606
vt 0.4980 0.5191
vt 0.0000 0.3606
vt 0.0000 0.5192
vt 0.9961 0.1348
vt 0.5020 0.1348
vt 0.5020 0.0065
vt 0.9961 0.0065
vt 0.5020 0.1348
vt 0.5020 0.0065
vt 0.9961 0.1348
vt 0.9961 0.0065
vt 0.6980 0.4383
vt 0.5020 0.5830
vt 0.5020 0.4383
vt 0.9961 0.5830
vt 0.8157 0.4383
vt 0.9961 0.4383
vt 0.5248 0.1986
vt 0.5259 0.2916
vt 0.9694 0.1986
vt 0.9705 0.2916
vt 0.9694 0.2011
vt 0.5248 0.2011
vt 0.1337 0.9885
vt 0.1337 0.9052
vt 0.2396 0.9052
vt 0.2396 0.9885
vt 0.0737 0.9024
vt 0.0737 0.9976
vt 0.4941 0.9975
vt 0.4941 0.9026
vt 0.0737 0.9024
vt 0.0737 0.9975
vt 0.4941 0.9975
vt 0.4941 0.9027
vt 0.0737 0.9975
vt 0.0749 0.9916
vt 0.0749 0.9052
vt 0.3219 0.9052
vt 0.3219 0.9916
vt 0.1337 0.9885
vt 0.1337 0.9052
vt 0.2357 0.9239
vt 0.2357 0.9505
vt 0.0749 0.9916
vt 0.0749 0.9052
vt 0.3219 0.9052
vt 0.3219 0.9916
vt 0.1337 0.9885
vt 0.1337 0.9052
vt 0.2396 0.9052
vt 0.2396 0.9617
vt 0.0737 0.9024
vt 0.0737 0.9975
vt 0.4941 0.9975
vt 0.4941 0.9026
vt 0.0000 0.8416
vt 0.1216 0.8416
vt 0.1216 0.8612
vt 0.0000 0.8612
vt 0.1176 0.8416
vt 0.0000 0.8416
vt 0.0000 0.8612
vt 0.1176 0.8612
vt 0.1176 0.8416
vt 0.0000 0.8416
vt 0.0000 0.8612
vt 0.1176 0.8612
vt 0.0000 0.8416
vt 0.1176 0.8416
vt 0.1176 0.8612
vt 0.0000 0.8612
vt 0.0000 0.8612
vt 0.1216 0.8612
vt 0.1216 0.8850
vt 0.0000 0.8850
vt 0.1176 0.8612
vt 0.0000 0.8612
vt 0.0000 0.8850
vt 0.1176 0.8850
vt 0.1176 0.8612
vt 0.0000 0.8612
vt 0.0000 0.8850
vt 0.1176 0.8850
vt 0.0000 0.8612
vt 0.1176 0.8612
vt 0.1176 0.8850
vt 0.0000 0.8850
vt 0.0000 0.8850
vt 0.1216 0.8850
vt 0.1216 0.8968
vt 0.0000 0.8968
vt 0.1176 0.8850
vt 0.0000 0.8850
vt 0.0000 0.8968
vt 0.1176 0.8968
vt 0.1176 0.8850
vt 0.0000 0.8850
vt 0.0000 0.8968
vt 0.1176 0.8968
vt 0.0000 0.8850
vt 0.1176 0.8850
vt 0.1176 0.8968
vt 0.0000 0.8968
vt 0.5020 0.0090
vt 0.6980 0.0090
vt 0.5020 0.1316
vt 0.6980 0.1316
vt 0.8157 0.0090
vt 0.9961 0.0090
vt 0.9961 0.1316
vt 0.8157 0.1316
vt 0.8157 0.4601
vt 0.6980 0.4052
vt 0.8157 0.4052
vt 0.6980 0.4601
vt 0.4980 0.3612
vt 0.0000 0.3612
vt 0.0000 0.5210
vt 0.4980 0.5210
vt 0.4980 0.1409
vt 0.0000 0.1409
vt 0.0000 0.0061
vt 0.4980 0.0061
vt 0.9946 0.2916
vt 0.9935 0.1986
vt 0.5018 0.2916
vt 0.9935 0.1986
vt 0.9687 0.2336
vt 0.6551 0.2336
vt 0.9970 0.2336
vt 0.9687 0.2704
vt 0.9970 0.2704
vt 0.6551 0.2704
vt 0.9884 0.1394
vt 0.9884 0.1545
vt 0.6551 0.1394
vt 0.6551 0.1545
vt 0.5609 0.1299
vt 0.5700 0.0077
vt 0.7013 0.0077
vt 0.6169 0.0077
vt 0.6039 0.1299
vt 0.7483 0.0077
vt 0.0000 0.4959
vt 0.4980 0.4959
vt 0.2549 0.6304
vt 0.0000 0.4959
vt 0.4980 0.4959
vt 0.2549 0.6304
vt 0.4980 0.5225
vt 0.0000 0.5225
vt 0.2588 0.6483
vt 0.0000 0.3612
vt 0.4980 0.3612
vt 0.0000 0.5210
vt 0.4980 0.5210
vt 0.0000 0.5225
vt 0.4980 0.5225
vt 0.2588 0.6483
vt 0.0000 0.0061
vt 0.4980 0.0061
vt 0.4980 0.1505
vt 0.0000 0.1505
vt 0.2838 0.4334
vt 0.2838 0.4644
vt 0.2066 0.4644
vt 0.2066 0.4334
vt 0.0749 0.9916
vt 0.0749 0.9052
vt 0.3219 0.9052
vt 0.3219 0.9916
vt 0.9946 0.2916
vt 0.5018 0.2916
vt 0.9935 0.1986
vt 0.9935 0.1986
vn 0.6865 0.2156 -0.6944
vn 0.0338 0.2863 0.9575
vn 0.9800 0.1952 -0.0391
vn 0.9701 0.2419 -0.0210
vn -0.2965 0.1476 0.9436
vn -0.9597 0.2805 0.0137
vn -0.9232 0.2290 -0.3088
vn 0.0080 0.1929 -0.9812
vn 0.4425 0.1718 -0.8802
vn -0.9597 0.2806 0.0137
vn -0.2960 0.2426 -0.9239
vn -0.8524 0.4408 0.2811
vn 0.0338 0.2864 0.9575
vn 0.3259 0.3489 0.8787
vn 0.9800 0.1951 -0.0391
vn 0.9953 0.0960 -0.0081
vn 0.7563 0.1494 -0.6369
vn 0.6859 0.1404 -0.7141
vn 0.0081 0.1929 -0.9812
vn -0.1095 0.1985 0.9740
vn 0.2071 0.9562 0.2069
vn -0.9160 0.3772 -0.1365
vn -0.4044 0.8454 -0.3489
vn 0.0126 0.4681 -0.8836
vn 0.9840 0.1663 0.0632
vn 0.1878 0.6489 0.7373
vn 0.4968 0.5265 0.6899
vn 0.5090 0.5132 0.6910
vn -0.2066 0.7229 0.6594
vn 0.2895 -0.0282 0.9568
vn 0.9410 -0.0608 -0.3328
vn 0.9412 -0.0721 0.3299
vn -0.3273 0.0157 0.9448
vn -0.3319 0.0398 -0.9425
vn -0.9514 0.0807 0.2972
vn -0.8883 -0.1034 -0.4475
vn -0.1360 -0.2767 -0.9513
vn -0.7974 0.1610 -0.5816
vn -0.7862 0.1672 -0.5949
vn -0.7909 0.2485 -0.5592
vn -0.7403 0.3978 -0.5419
vn -0.7403 0.3979 -0.5419
vn -0.6882 0.5105 -0.5155
vn -0.6082 0.5968 -0.5234
vn -0.6724 0.1571 0.7234
vn 0.2552 0.0070 0.9669
vn -0.3013 0.1048 0.9478
vn -0.6945 0.1748 0.6980
vn -0.5274 0.6832 0.5050
vn 0.1879 0.6489 0.7373
vn -0.2066 0.7229 0.6593
vn -0.5242 0.7062 0.4759
vn -0.9514 0.0806 0.2973
vn 0.6892 -0.4412 0.5747
vn 0.6893 -0.4405 0.5752
vn 0.6893 -0.4408 0.5750
vn 0.6892 -0.4418 0.5743
vn 0.6545 -0.3430 -0.6738
vn 0.6547 -0.3425 -0.6739
vn 0.6543 -0.3434 -0.6738
vn -0.1359 -0.2767 -0.9513
vn -0.5648 -0.4981 -0.6579
vn -0.5633 -0.5029 -0.6556
vn -0.5060 -0.7052 0.4966
vn -0.5065 -0.7046 0.4970
vn -0.5061 -0.7051 0.4967
vn -0.5054 -0.7059 0.4963
vn 0.7112 0.0361 0.7021
vn 0.7098 0.0386 0.7033
vn 0.7125 0.0336 0.7009
vn 0.6801 0.2602 -0.6854
vn 0.6802 0.2614 -0.6849
vn 0.6801 0.2601 -0.6854
vn 0.6800 0.2592 -0.6859
vn -0.7085 -0.0944 -0.6994
vn -0.7076 -0.0876 -0.7012
vn -0.7085 -0.0943 -0.6994
vn -0.7093 -0.1012 -0.6976
vn -0.6756 -0.2827 0.6809
vn -0.6763 -0.2813 0.6808
vn -0.6757 -0.2825 0.6809
vn -0.6751 -0.2839 0.6809
vn 0.5436 0.5346 0.6471
vn 0.5410 0.5378 0.6466
vn 0.5463 0.5313 0.6475
vn 0.4610 0.7644 -0.4507
vn 0.4607 0.7649 -0.4502
vn 0.4615 0.7637 -0.4514
vn -0.6990 0.4326 -0.5695
vn -0.6985 0.4338 -0.5691
vn -0.6989 0.4328 -0.5694
vn -0.6994 0.4314 -0.5698
vn -0.6549 0.3377 0.6760
vn -0.6549 0.3383 0.6758
vn -0.6549 0.3378 0.6760
vn -0.6551 0.3370 0.6762
vn 0.9953 0.0961 -0.0081
vn 0.9321 -0.0213 -0.3616
vn 0.7563 0.1495 -0.6369
vn 0.3164 0.1020 -0.9431
vn 0.6589 0.1722 -0.7323
vn 0.9606 0.0991 -0.2596
vn -0.8832 0.3640 0.2959
vn 0.2512 0.6476 0.7194
vn 0.9841 0.1663 0.0631
vn 0.2512 0.6475 0.7194
vn 0.8316 0.5554 -0.0048
vn -0.1673 0.9814 0.0941
vn -0.6800 0.5527 -0.4818
vn 0.4756 0.6462 0.5968
vn 0.6858 0.1404 -0.7141
vn 0.6559 0.1567 -0.7384
vn 0.9606 0.0991 -0.2595
vn 0.6588 0.1722 -0.7323
vn 0.9057 0.1229 -0.4057
vn 0.6558 0.1567 -0.7385
vn 0.9319 -0.0249 -0.3618
vn 0.6859 0.1403 -0.7141
vn -0.0072 0.5657 -0.8246
vn -0.8832 0.3639 0.2959
vn -0.0071 0.5657 -0.8246
vn 0.2071 0.9562 0.2068
vn 0.0127 0.4681 -0.8836
vn -0.4045 0.8454 -0.3488
vn -0.0071 0.5656 -0.8246
vn -0.8832 0.3639 0.2960
vn -0.9160 0.3771 -0.1365
vn -0.0979 0.9875 0.1239
vn -0.0980 0.9874 0.1240
vn -0.0978 0.9875 0.1239
vn -0.0976 0.9875 0.1239
vn 0.6148 -0.0531 0.7869
vn 0.6281 -0.0613 0.7757
vn -0.3013 0.1048 0.9477
vn 0.1747 -0.9807 -0.0879
vn 0.1488 -0.9831 -0.1065
vn 0.6800 -0.5527 0.4818
vn -0.4756 -0.6462 -0.5968
usemtl VillageDoodad0
s 1
f 1/1/1 2/2/1 3/3/1
f 4/4/2 5/5/3 6/6/4
f 6/6/4 7/7/5 4/4/2
f 8/8/6 4/4/2 7/7/5
f 7/7/5 9/9/7 8/8/6
f 10/10/8 8/8/6 9/9/7
f 9/9/7 11/11/9 10/10/8
f 12/12/10 13/13/8 14/14/11
f 14/14/11 15/15/12 12/12/10
f 16/16/13 12/12/10 15/15/12
f 15/15/12 17/17/14 16/16/13
f 18/18/15 16/16/13 17/17/14
f 17/17/14 19/19/16 18/18/15
f 20/20/17 21/21/4 22/22/3
f 23/23/9 21/21/4 20/20/17
f 23/23/9 20/20/17 24/24/18
f 23/23/9 24/24/18 25/25/19
f 26/26/20 27/27/21 28/28/22
f 29/29/23 28/28/22 27/27/21
f 29/29/23 27/27/21 30/30/24
f 31/31/25 30/30/24 27/27/21
f 32/32/26 33/33/27 34/34/28
f 34/34/28 35/35/29 32/32/26
f 36/36/30 37/37/31 38/38/32
f 38/38/32 39/39/33 36/36/30
f 40/40/34 41/41/35 42/42/36
f 42/42/36 43/43/37 40/40/34
f 44/44/31 40/40/34 43/43/37
f 43/43/37 38/38/32 44/44/31
f 45/45/38 46/46/39 47/47/40
f 47/47/40 48/48/41 45/45/38
f 49/49/42 50/50/40 51/51/43
f 51/51/43 52/52/44 49/49/42
f 53/53/45 54/54/46 55/55/47
f 55/55/47 56/56/48 53/53/45
f 57/57/49 58/58/50 59/59/51
f 59/59/51 60/60/52 57/57/49
f 61/61/53 62/62/30 63/63/33
f 63/63/33 64/64/36 61/61/53
f 65/65/54 66/66/55 67/67/56
f 67/67/56 68/68/57 65/65/54
f 69/69/58 70/70/59 71/71/58
f 71/71/58 72/72/60 69/69/58
f 73/73/61 74/74/36 75/75/62
f 75/75/62 76/76/63 73/73/61
f 77/77/64 78/78/65 79/79/66
f 79/79/66 80/80/67 77/77/64
f 81/81/68 82/82/69 83/83/68
f 83/83/68 84/84/70 81/81/68
f 85/85/71 86/86/72 87/87/73
f 87/87/73 88/88/74 85/85/71
f 89/89/75 90/90/76 91/91/77
f 91/91/77 92/92/78 89/89/75
f 93/93/79 94/94/80 95/95/81
f 95/95/81 96/96/82 93/93/79
f 97/97/83 98/98/84 99/99/83
f 99/99/83 100/100/85 97/97/83
f 101/101/86 102/102/87 103/103/86
f 103/103/86 104/104/88 101/101/86
f 105/105/89 106/106/90 107/107/91
f 107/107/91 108/108/92 105/105/89
f 109/109/93 110/110/94 111/111/95
f 111/111/95 112/112/96 109/109/93
f 113/113/97 114/114/98 115/115/3
f 114/114/98 116/116/99 115/115/3
f 117/117/100 118/118/11 119/119/19
f 119/119/19 120/120/18 117/117/100
f 121/121/18 122/122/101 123/123/102
f 122/122/101 121/121/18 124/124/17
f 125/125/103 126/126/104 127/127/20
f 127/127/20 128/128/22 125/125/103
f 129/129/105 130/130/20 131/131/106
f 131/131/106 132/132/107 129/129/105
f 133/133/108 134/134/109 135/135/108
f 133/133/108 135/135/108 136/136/110
f 137/137/111 138/138/112 139/139/113
f 140/140/17 141/141/114 142/142/115
f 143/143/113 144/144/101 145/145/116
f 145/145/116 144/144/101 146/146/115
f 147/147/99 148/148/117 149/149/115
f 150/150/100 151/151/118 152/152/112
f 153/153/119 154/154/120 155/155/106
f 156/156/106 157/157/107 158/158/121
f 159/159/20 160/160/105 161/161/122
f 162/162/107 163/163/119 164/164/105
f 165/165/123 164/164/105 163/163/119
f 166/166/24 167/167/22 168/168/124
f 169/169/125 170/170/126 171/171/127
f 171/171/127 172/172/24 169/169/125
f 173/173/128 174/174/129 175/175/130
f 175/175/130 176/176/131 173/173/128
f 177/177/46 178/178/132 179/179/133
f 179/179/133 180/180/134 177/177/46
f 181/181/135 183/182/136 182/183/137
f 181/181/135 184/184/138 183/182/136
