# Blender v2.78 (sub 0) OBJ File: ''
# www.blender.org
mtllib pubSign.mtl
o TavernSign
v -1.336693 5.016929 -0.523759
v -0.917805 5.056582 -0.946368
v -1.348387 4.989860 -1.379416
v -1.767275 4.950205 -0.956812
v -0.712497 -1.238146 -0.364195
v -0.470086 -1.215194 -0.608763
v -0.917805 5.056582 -0.946368
v -1.336693 5.016929 -0.523759
v -0.470086 -1.215194 -0.608763
v -0.719264 -1.253807 -0.859369
v -1.348387 4.989860 -1.379416
v -0.917805 5.056582 -0.946368
v -0.719264 -1.253807 -0.859369
v -0.961679 -1.276759 -0.614805
v -1.767275 4.950205 -0.956812
v -1.348387 4.989860 -1.379416
v -0.961679 -1.276759 -0.614805
v -0.712497 -1.238146 -0.364195
v -1.336693 5.016929 -0.523759
v -1.767275 4.950205 -0.956812
v 0.312231 4.830550 1.093163
v 0.731119 4.870239 0.670549
v 0.636322 5.476052 0.633445
v 0.217435 5.436400 1.056057
v -1.392861 4.468606 -0.808159
v -1.150447 4.491547 -1.052724
v 0.731119 4.870239 0.670549
v 0.312231 4.830550 1.093163
v -1.150447 4.491547 -1.052724
v -1.205301 4.842130 -1.074192
v 0.636322 5.476052 0.633445
v 0.731119 4.870239 0.670549
v -1.205301 4.842130 -1.074192
v -1.447715 4.819188 -0.829628
v 0.217435 5.436400 1.056057
v 0.636322 5.476052 0.633445
v -1.447715 4.819188 -0.829628
v -1.392861 4.468606 -0.808159
v 0.312231 4.830550 1.093163
v 0.217435 5.436400 1.056057
v -0.694042 2.904613 -0.722427
v -0.916663 4.495739 -0.746229
v 0.499868 4.715248 0.678439
v 0.722493 3.124123 0.702244
v -0.923353 2.882895 -0.491072
v 0.493178 3.102405 0.933600
v 0.317876 4.697989 0.862061
v -1.098663 4.478479 -0.562612
v -0.694042 2.904613 -0.722427
v 0.722493 3.124123 0.702244
v 0.493178 3.102405 0.933600
v -0.923353 2.882895 -0.491072
v 0.722493 3.124123 0.702244
v 0.499868 4.715248 0.678439
v 0.317876 4.697989 0.862061
v 0.493178 3.102405 0.933600
v 0.499868 4.715248 0.678439
v -0.916663 4.495739 -0.746229
v -1.098663 4.478479 -0.562612
v 0.317876 4.697989 0.862061
v -0.916663 4.495739 -0.746229
v -0.694042 2.904613 -0.722427
v -0.923353 2.882895 -0.491072
v -1.098663 4.478479 -0.562612
vt 0.1393 0.5968
vt 0.1171 0.5969
vt 0.1172 0.5660
vt 0.1395 0.5659
vt 0.1384 0.7244
vt 0.1179 0.7249
vt 0.1148 0.5652
vt 0.1420 0.5651
vt 0.1384 0.7244
vt 0.1179 0.7249
vt 0.1148 0.5652
vt 0.1420 0.5651
vt 0.1384 0.7244
vt 0.1179 0.7249
vt 0.1148 0.5652
vt 0.1420 0.5651
vt 0.1384 0.7244
vt 0.1179 0.7249
vt 0.1148 0.5652
vt 0.1420 0.5651
vt 0.1393 0.5968
vt 0.1171 0.5969
vt 0.1172 0.5660
vt 0.1395 0.5659
vt 0.1384 0.7244
vt 0.1179 0.7249
vt 0.1148 0.5652
vt 0.1420 0.5651
vt 0.1384 0.7244
vt 0.1179 0.7249
vt 0.1148 0.5652
vt 0.1420 0.5651
vt 0.1384 0.7244
vt 0.1179 0.7249
vt 0.1148 0.5652
vt 0.1420 0.5651
vt 0.1384 0.7244
vt 0.1179 0.7249
vt 0.1148 0.5652
vt 0.1420 0.5651
vt 0.9967 0.0014
vt 0.8991 0.0014
vt 0.8991 0.1157
vt 0.9967 0.1157
vt 0.9967 0.0014
vt 0.9967 0.1213
vt 0.8991 0.1213
vt 0.8991 0.0014
vt 0.9967 0.0014
vt 0.9967 0.1157
vt 0.9967 0.1213
vt 0.9967 0.0014
vt 0.9967 0.1157
vt 0.8991 0.1157
vt 0.8991 0.1213
vt 0.9967 0.1213
vt 0.8991 0.1157
vt 0.8991 0.0014
vt 0.8991 0.0014
vt 0.8991 0.1213
vt 0.8991 0.0014
vt 0.9967 0.0014
vt 0.9967 0.0014
vt 0.8991 0.0014
vn -0.1238 0.9919 -0.0297
vn 0.7033 0.0882 0.7054
vn 0.7081 0.0125 -0.7060
vn -0.6982 -0.1290 -0.7042
vn -0.7041 -0.0522 0.7082
vn 0.6948 0.1518 0.7030
vn 0.1486 -0.9874 0.0547
vn 0.1487 -0.9874 0.0546
vn 0.6677 0.0590 -0.7420
vn -0.2175 0.9680 -0.1248
vn -0.7354 -0.0738 0.6736
vn 0.6997 0.0873 -0.7091
vn -0.7049 -0.0457 0.7079
vn 0.1239 -0.9919 0.0297
vn 0.7009 0.1086 0.7049
vn -0.1239 0.9918 -0.0296
vn -0.7009 -0.1086 -0.7049
usemtl CityBuildingsNew
s 1
f 1/1/1 2/2/1 3/3/1
f 3/3/1 4/4/1 1/1/1
f 5/5/2 6/6/2 7/7/2
f 7/7/2 8/8/2 5/5/2
f 9/9/3 10/10/3 11/11/3
f 11/11/3 12/12/3 9/9/3
f 13/13/4 14/14/4 15/15/4
f 15/15/4 16/16/4 13/13/4
f 17/17/5 18/18/5 19/19/5
f 19/19/5 20/20/5 17/17/5
f 21/21/6 22/22/6 23/23/6
f 23/23/6 24/24/6 21/21/6
f 25/25/7 26/26/7 27/27/8
f 27/27/8 28/28/8 25/25/7
f 29/29/9 30/30/9 31/31/9
f 31/31/9 32/32/9 29/29/9
f 33/33/10 34/34/10 35/35/10
f 35/35/10 36/36/10 33/33/10
f 37/37/11 38/38/11 39/39/11
f 39/39/11 40/40/11 37/37/11
f 41/41/12 42/42/12 43/43/12
f 43/43/12 44/44/12 41/41/12
f 45/45/13 46/46/13 47/47/13
f 47/47/13 48/48/13 45/45/13
f 49/49/14 50/50/14 51/51/14
f 51/51/14 52/52/14 49/49/14
f 53/53/15 54/54/15 55/55/15
f 55/55/15 56/56/15 53/53/15
f 57/57/16 58/58/16 59/59/16
f 59/59/16 60/60/16 57/57/16
f 61/61/17 62/62/17 63/63/17
f 63/63/17 64/64/17 61/61/17
