# Blender v2.78 (sub 0) OBJ File: ''
# www.blender.org
mtllib rocks04.mtl
o North_Rocks5
v -0.269022 2.696547 1.786471
v -0.234785 2.643696 1.415546
v -0.551840 2.610585 1.838756
v -0.882813 2.501849 1.553207
v -0.723027 1.831100 2.035427
v -1.249658 0.016165 1.505033
v -1.170745 0.016164 2.255837
v -0.191374 1.828118 0.986192
v -0.827507 0.016165 0.879168
v -0.078480 0.016165 0.532941
v -0.160956 2.399737 2.192272
v 0.161481 1.828118 2.120528
v 0.176992 2.069196 1.441123
v -0.234785 2.643696 1.415546
v -0.191374 1.828118 0.986192
v -0.269022 2.696547 1.786471
v 0.624394 0.016164 2.229084
v 0.807034 0.016165 1.496576
v 0.476093 0.016165 0.818045
v -0.078480 0.016165 0.532941
v 2.091193 0.333357 -0.318088
v 2.614349 0.016165 -0.048994
v 1.779030 0.016165 -1.646099
v 0.839738 0.658112 -1.654281
v 1.412704 0.799955 -0.332953
v 0.192691 0.703245 -1.049286
v 0.399539 0.885408 -0.317116
v 0.643350 0.016165 -2.275613
v -0.222830 0.495091 -1.213401
v -0.631274 0.016165 -2.027853
v 0.399539 0.885408 -0.317116
v 0.132470 0.889081 0.310675
v 1.412704 0.799955 -0.332953
v 1.185478 0.558870 0.995910
v 2.091193 0.333357 -0.318088
v 2.048278 0.016165 1.046774
v 2.614349 0.016165 -0.048994
v -0.238828 0.492115 0.635872
v 0.935261 0.016165 1.715539
v -0.316336 0.016165 1.044042
v -0.527514 0.718618 -0.256478
v -1.645338 0.016165 -0.656646
v -1.377814 0.016165 0.546333
v -0.222830 0.495091 -1.213401
v 0.192691 0.703245 -1.049286
v -0.631274 0.016165 -2.027853
v 0.399539 0.885408 -0.317116
v 0.132470 0.889081 0.310675
v -0.238828 0.492115 0.635872
v -0.316336 0.016165 1.044042
v -0.269022 2.696547 1.786471
v -0.551840 2.610585 1.838756
v -0.160956 2.399737 2.192272
v -0.283614 2.229276 2.223594
v 0.161481 1.828118 2.120528
v 0.148737 0.016164 2.694781
v 0.624394 0.016164 2.229084
v -0.723027 1.831100 2.035427
v -0.561565 0.016164 2.788771
v -1.170745 0.016164 2.255837
vt 0.2024 0.5096
vt 0.0744 0.4100
vt 0.3304 0.4100
vt 0.2024 0.2226
vt 0.3969 0.2228
vt 0.2911 0.0025
vt 0.3972 0.0031
vt 0.0092 0.2228
vt 0.1138 0.0025
vt 0.0087 0.0031
vt 0.1031 0.4106
vt 0.0094 0.2445
vt 0.2073 0.2452
vt 0.3004 0.4103
vt 0.3991 0.2462
vt 0.1983 0.5074
vt 0.0084 0.0017
vt 0.1223 0.0027
vt 0.3022 0.0028
vt 0.3997 0.0029
vt 0.0092 0.2228
vt 0.0087 0.0031
vt 0.1138 0.0025
vt 0.2024 0.2226
vt 0.0744 0.4100
vt 0.3304 0.4100
vt 0.2024 0.5096
vt 0.2911 0.0025
vt 0.3969 0.2228
vt 0.3972 0.0031
vt 0.1983 0.5074
vt 0.1031 0.4106
vt 0.3004 0.4103
vt 0.2073 0.2452
vt 0.3991 0.2462
vt 0.3022 0.0028
vt 0.3997 0.0029
vt 0.0094 0.2445
vt 0.1223 0.0027
vt 0.0084 0.0017
vt 0.2053 0.2264
vt 0.1061 0.0034
vt 0.3045 0.0034
vt 0.0072 0.2263
vt 0.0797 0.4117
vt 0.0064 0.0035
vt 0.2053 0.5105
vt 0.3309 0.4117
vt 0.3997 0.2263
vt 0.4006 0.0035
vt 0.2053 0.5105
vt 0.0797 0.4117
vt 0.3309 0.4117
vt 0.2053 0.2264
vt 0.3997 0.2263
vt 0.3045 0.0034
vt 0.4006 0.0035
vt 0.0072 0.2263
vt 0.1061 0.0034
vt 0.0064 0.0035
vn 0.2195 0.9514 0.2159
vn 0.3475 0.8542 -0.3868
vn -0.4669 0.7367 0.4892
vn -0.8015 0.5212 -0.2933
vn -0.7537 0.2643 0.6017
vn -0.9827 0.1854 0.0024
vn -0.8559 0.2651 0.4440
vn 0.1012 0.3463 -0.9326
vn -0.5883 0.1881 -0.7864
vn 0.0178 0.2437 -0.9697
vn 0.5126 0.6087 0.6056
vn 0.7685 0.2820 0.5744
vn 0.8698 0.4220 -0.2557
vn 0.3475 0.8542 -0.3869
vn 0.8409 0.2438 0.4831
vn 0.9598 0.2798 -0.0222
vn 0.6775 0.2769 -0.6814
vn 0.0178 0.2436 -0.9697
vn 0.5493 0.8342 -0.0489
vn 0.5371 0.8419 -0.0517
vn 0.5273 0.7137 -0.4611
vn 0.1496 0.8783 -0.4541
vn 0.2463 0.9685 -0.0359
vn -0.1723 0.9588 -0.2258
vn -0.0547 0.9903 -0.1277
vn -0.0199 0.7672 -0.6411
vn -0.3198 0.8559 -0.4064
vn -0.2539 0.8840 -0.3925
vn -0.1648 0.9706 0.1755
vn 0.2218 0.8652 0.4498
vn 0.4504 0.8151 0.3644
vn -0.3341 0.7590 0.5588
vn -0.0558 0.7498 0.6593
vn -0.3438 0.6429 0.6844
vn -0.4104 0.9119 0.0085
vn -0.4724 0.8642 -0.1734
vn -0.4392 0.8040 0.4009
vn -0.2540 0.8840 -0.3925
vn -0.1528 0.2902 0.9447
vn 0.4310 0.2464 0.8680
vn 0.8409 0.2438 0.4832
vn -0.3882 0.2667 0.8821
vn -0.8559 0.2650 0.4441
usemtl NorthrendNatural02
s 1
f 1/1/1 2/2/2 3/3/3
f 2/2/2 4/4/4 3/3/3
f 3/3/3 4/4/4 5/5/5
f 4/4/4 6/6/6 5/5/5
f 5/5/5 6/6/6 7/7/7
f 2/2/2 8/8/8 4/4/4
f 8/8/8 9/9/9 4/4/4
f 4/4/4 9/9/9 6/6/6
f 8/8/8 10/10/10 9/9/9
f 11/11/11 12/12/12 13/13/13
f 11/11/11 13/13/13 14/14/14
f 14/14/14 13/13/13 15/15/8
f 16/16/1 11/11/11 14/14/14
f 12/12/12 17/17/15 18/18/16
f 12/12/12 18/18/16 13/13/13
f 13/13/13 18/18/16 19/19/17
f 13/13/13 19/19/17 15/15/8
f 15/15/8 19/19/17 20/20/18
f 21/21/19 22/22/20 23/23/21
f 21/21/19 23/23/21 24/24/22
f 25/25/23 21/21/19 24/24/22
f 25/25/23 24/24/22 26/26/24
f 27/27/25 25/25/23 26/26/24
f 24/24/22 23/23/21 28/28/26
f 24/24/22 28/28/26 29/29/27
f 26/26/24 24/24/22 29/29/27
f 29/29/27 28/28/26 30/30/28
f 31/31/25 32/32/29 33/33/23
f 32/32/29 34/34/30 33/33/23
f 33/33/23 34/34/30 35/35/19
f 34/34/30 36/36/31 35/35/19
f 35/35/19 36/36/31 37/37/20
f 32/32/29 38/38/32 34/34/30
f 38/38/32 39/39/33 34/34/30
f 34/34/30 39/39/33 36/36/31
f 38/38/32 40/40/34 39/39/33
f 41/41/35 42/42/36 43/43/37
f 44/44/27 42/42/36 41/41/35
f 45/45/24 44/44/27 41/41/35
f 44/44/27 46/46/38 42/42/36
f 47/47/25 45/45/24 48/48/29
f 45/45/24 41/41/35 48/48/29
f 48/48/29 41/41/35 49/49/32
f 41/41/35 43/43/37 49/49/32
f 49/49/32 43/43/37 50/50/34
f 51/51/1 52/52/3 53/53/11
f 52/52/3 54/54/39 53/53/11
f 53/53/11 54/54/39 55/55/12
f 54/54/39 56/56/40 55/55/12
f 55/55/12 56/56/40 57/57/41
f 52/52/3 58/58/5 54/54/39
f 58/58/5 59/59/42 54/54/39
f 54/54/39 59/59/42 56/56/40
f 58/58/5 60/60/43 59/59/42
