# Blender v2.78 (sub 0) OBJ File: ''
# www.blender.org
mtllib rocksBig00.mtl
o NorthrendFissure0(m0)
v -3.821463 0.236378 2.105510
v -4.609567 0.032457 0.646351
v -3.932058 0.011851 1.478959
v -3.891951 1.431787 1.358147
v -3.782022 0.032457 0.346487
v -2.716817 1.520019 2.103989
v -1.695479 0.724531 1.458756
v -1.089529 0.032457 0.717755
v -1.695479 1.682106 2.136471
v -1.320403 1.875126 2.270398
v 0.930939 0.236378 2.134573
v 2.353171 0.011851 1.509679
v 3.522087 0.032457 0.861069
v 0.111139 0.998493 1.682012
v 2.094339 0.032457 0.568643
v -1.695479 0.724531 1.458756
v -1.089529 0.032457 0.717755
v -0.173705 1.520019 2.776039
v -1.695479 1.682106 2.136471
v -1.320403 1.875126 2.270398
v -3.350414 0.012279 -1.541989
v -3.858624 0.012279 -0.841430
v -4.728874 1.608704 -1.411093
v -4.104872 1.608704 -1.481924
v -2.179425 0.012279 -0.691204
v -3.652957 1.608704 -1.153586
v -2.798779 0.012279 0.427873
v -3.997636 1.608704 -0.879836
v -3.411366 0.012279 0.535161
v -4.556249 1.608704 -0.879836
v -3.858624 0.012279 -0.841430
v -4.728874 1.608704 -1.411093
v 4.571012 0.012279 1.385243
v 4.544528 0.012279 0.788940
v 4.490893 1.113260 0.843138
v 4.184516 1.113260 1.149256
v 3.573726 0.012279 1.428781
v 3.799636 1.113260 1.166059
v 3.427554 0.012279 0.558876
v 3.868160 1.113260 0.870326
v 3.712104 0.012279 0.237983
v 4.169627 1.113260 0.630511
v 4.544528 0.012279 0.788940
v 4.490893 1.113260 0.843138
v 3.141934 0.012280 -3.545182
v 2.577428 0.012280 -3.739095
v 2.622340 2.098576 -3.877093
v 2.794870 2.098576 -3.479826
v 2.810149 0.012280 -2.344558
v 2.669446 2.098575 -3.115582
v 1.947208 0.012280 -2.527392
v 2.419402 2.098575 -3.287718
v 1.759726 0.012280 -3.166540
v 2.306767 2.098576 -3.656125
v 2.577428 0.012280 -3.739095
v 2.622340 2.098576 -3.877093
v -1.113828 2.145886 -2.932265
v -0.107761 1.134775 -3.172182
v -1.397715 1.541933 -3.423911
v -2.570449 2.557910 -3.046833
v -2.774747 1.134775 -3.194041
v -2.090623 2.848165 -2.758453
v 0.641232 0.032458 -2.256991
v 0.155660 0.032458 -2.945733
v -0.905170 0.032458 -3.307075
v -2.183639 0.032458 -3.278310
v 5.224982 0.372402 -0.136824
v 5.338777 0.032457 -0.003536
v 5.507187 0.032457 -0.348268
v 4.714618 0.115340 -0.275342
v 3.732601 0.498222 -0.441372
v 4.881666 0.032457 0.038578
v 3.898446 0.740710 -0.745490
v 4.635323 0.762129 -0.768414
v 4.755897 0.387874 -1.061726
v 4.871117 0.032458 -1.157486
v 1.678327 1.370768 -1.228230
v 2.073893 0.788550 -1.146344
v 1.895066 1.442606 -1.672542
v 1.013367 1.616269 -1.645009
v 0.878528 1.314258 -2.346034
v 0.994327 1.602384 -1.229165
v 2.900054 0.032457 -0.393979
v 3.315945 0.032458 -1.421215
v 2.199207 0.032458 -2.204519
v 0.258275 0.032458 -2.588718
v -3.821463 0.236378 2.105510
v -3.932058 0.011851 1.478959
v -1.917071 0.011850 3.128565
v -1.207841 0.818262 3.195118
v 0.713278 0.011850 2.509908
v 0.930939 0.236378 2.134573
v 2.353171 0.011851 1.509679
v -2.716817 1.520019 2.103989
v -1.320403 1.875126 2.270398
v -0.173705 1.520019 2.776039
v -2.090623 2.848165 -2.758453
v -2.570449 2.557910 -3.046833
v -2.457715 2.557910 -2.220226
v -3.408229 2.185886 -2.433980
v -2.983233 1.134775 -1.692086
v -3.586588 0.032458 -1.955179
v -2.863958 0.032458 -0.877162
v -2.774747 1.134775 -3.194041
v -3.161879 0.032458 -2.621403
v -2.183639 0.032458 -3.278310
v -2.090623 2.848165 -2.758453
v -2.457715 2.557910 -2.220226
v -1.113828 2.145886 -2.932265
v -1.264336 1.512280 -2.263472
v -0.107761 1.134775 -3.172182
v -0.371999 0.032458 -1.295734
v 0.641232 0.032458 -2.256991
v -2.983233 1.134775 -1.692086
v -1.601209 0.032458 -0.812443
v -2.863958 0.032458 -0.877162
v 3.898446 0.740710 -0.745490
v 4.635323 0.762129 -0.768414
v 3.470639 0.670783 -0.972668
v 3.453563 0.620558 -1.449594
v 3.228477 0.271047 -1.179370
v 2.594604 0.032458 -1.836407
v 1.794796 0.032458 -1.110748
v 4.755897 0.387874 -1.061726
v 3.831981 0.032458 -1.885628
v 4.871117 0.032458 -1.157486
v 3.898446 0.740710 -0.745490
v 3.470639 0.670783 -0.972668
v 3.732601 0.498222 -0.441372
v 3.374015 0.253163 -0.483152
v 4.714618 0.115340 -0.275342
v 3.577527 0.032457 -0.199883
v 4.881666 0.032457 0.038578
v 3.228477 0.271047 -1.179370
v 2.297950 0.032457 -0.322211
v 1.794796 0.032458 -1.110748
v 0.994327 1.602384 -1.229165
v 0.441759 1.388082 -1.257623
v 1.678327 1.370768 -1.228230
v 1.127273 0.831363 -0.866226
v 2.073893 0.788550 -1.146344
v 1.431999 0.032457 0.356945
v 2.900054 0.032457 -0.393979
v -0.084537 0.812022 -1.186194
v -0.653362 0.032457 0.059877
v -2.380283 0.032458 -0.463459
v 0.994327 1.602384 -1.229165
v 1.013367 1.616269 -1.645009
v 0.441759 1.388082 -1.257623
v 0.123996 1.355299 -1.685762
v -0.084537 0.812022 -1.186194
v -2.809981 0.032458 -1.362284
v -2.380283 0.032458 -0.463459
v 0.878528 1.314258 -2.346034
v -1.720009 0.032458 -2.256094
v 0.258275 0.032458 -2.588718
v -4.276958 1.836597 -1.072890
v -3.652957 1.608704 -1.153586
v -4.104872 1.608704 -1.481924
v -4.728874 1.608704 -1.411093
v -4.556249 1.608704 -0.879836
v -3.997636 1.608704 -0.879836
v 4.101768 1.270431 0.854613
v 3.799636 1.113260 1.166059
v 4.184516 1.113260 1.149256
v 4.490893 1.113260 0.843138
v 4.169627 1.113260 0.630511
v 3.868160 1.113260 0.870326
v 2.490403 2.255747 -3.510840
v 2.669446 2.098575 -3.115582
v 2.794870 2.098576 -3.479826
v 2.622340 2.098576 -3.877093
v 2.306767 2.098576 -3.656125
v 2.419402 2.098575 -3.287718
vt 0.3969 0.2228
vt 0.2911 0.0025
vt 0.3972 0.0031
vt 0.2024 0.2226
vt 0.1138 0.0025
vt 0.3304 0.4100
vt 0.0092 0.2228
vt 0.0087 0.0031
vt 0.0744 0.4100
vt 0.2024 0.5096
vt 0.0094 0.2445
vt 0.0084 0.0017
vt 0.1223 0.0027
vt 0.2073 0.2452
vt 0.3022 0.0028
vt 0.3991 0.2462
vt 0.3997 0.0029
vt 0.1031 0.4106
vt 0.3004 0.4103
vt 0.1983 0.5074
vt 0.3166 0.0005
vt 0.4022 0.0005
vt 0.4022 0.3730
vt 0.3166 0.3730
vt 0.2310 0.0005
vt 0.2310 0.3730
vt 0.1567 0.0005
vt 0.1567 0.3730
vt 0.0813 0.0005
vt 0.0813 0.3730
vt 0.0069 0.0005
vt 0.0069 0.3730
vt 0.3166 0.0005
vt 0.4022 0.0005
vt 0.4022 0.3730
vt 0.3166 0.3730
vt 0.2310 0.0005
vt 0.2310 0.3730
vt 0.1567 0.0005
vt 0.1567 0.3730
vt 0.0813 0.0005
vt 0.0813 0.3730
vt 0.0069 0.0005
vt 0.0069 0.3730
vt 0.3166 0.0005
vt 0.4022 0.0005
vt 0.4022 0.3730
vt 0.3166 0.3730
vt 0.2310 0.0005
vt 0.2310 0.3730
vt 0.1567 0.0005
vt 0.1567 0.3730
vt 0.0813 0.0005
vt 0.0813 0.3730
vt 0.0069 0.0005
vt 0.0069 0.3730
vt 0.1031 0.4106
vt 0.0094 0.2445
vt 0.2073 0.2452
vt 0.3004 0.4103
vt 0.3991 0.2462
vt 0.1983 0.5074
vt 0.0084 0.0017
vt 0.1223 0.0027
vt 0.3022 0.0028
vt 0.3997 0.0029
vt 0.2073 0.2211
vt 0.1223 0.0075
vt 0.3022 0.0077
vt 0.0094 0.2203
vt 0.1031 0.3864
vt 0.0084 0.0065
vt 0.1983 0.4832
vt 0.3004 0.3861
vt 0.3991 0.2221
vt 0.3997 0.0077
vt 0.0744 0.4100
vt 0.0092 0.2228
vt 0.2024 0.2226
vt 0.3304 0.4100
vt 0.3969 0.2228
vt 0.2024 0.5096
vt 0.0087 0.0031
vt 0.1138 0.0025
vt 0.2911 0.0025
vt 0.3972 0.0031
vt 0.0072 0.2263
vt 0.0064 0.0035
vt 0.1061 0.0034
vt 0.2053 0.2264
vt 0.3045 0.0034
vt 0.3997 0.2263
vt 0.4006 0.0035
vt 0.0797 0.4117
vt 0.2053 0.5105
vt 0.3309 0.4117
vt 0.2024 0.5096
vt 0.0744 0.4100
vt 0.3304 0.4100
vt 0.2024 0.2226
vt 0.3969 0.2228
vt 0.2911 0.0025
vt 0.3972 0.0031
vt 0.0092 0.2228
vt 0.1138 0.0025
vt 0.0087 0.0031
vt 0.2053 0.5105
vt 0.0797 0.4117
vt 0.3309 0.4117
vt 0.2053 0.2264
vt 0.3997 0.2263
vt 0.3045 0.0034
vt 0.4006 0.0035
vt 0.0072 0.2263
vt 0.1061 0.0034
vt 0.0064 0.0035
vt 0.2024 0.4854
vt 0.0744 0.3859
vt 0.3304 0.3859
vt 0.2024 0.1985
vt 0.3969 0.1986
vt 0.2911 0.0073
vt 0.3972 0.0079
vt 0.0092 0.1986
vt 0.1138 0.0073
vt 0.0087 0.0079
vt 0.2053 0.4864
vt 0.0797 0.3875
vt 0.3309 0.3875
vt 0.2053 0.2022
vt 0.3997 0.2021
vt 0.3045 0.0082
vt 0.4006 0.0084
vt 0.0072 0.2021
vt 0.1061 0.0082
vt 0.0064 0.0084
vt 0.1983 0.5074
vt 0.1031 0.4106
vt 0.3004 0.4103
vt 0.2073 0.2452
vt 0.3991 0.2462
vt 0.3022 0.0028
vt 0.3997 0.0029
vt 0.0094 0.2445
vt 0.1223 0.0027
vt 0.0084 0.0017
vt 0.2053 0.5105
vt 0.0797 0.4117
vt 0.3309 0.4117
vt 0.2053 0.2264
vt 0.3997 0.2263
vt 0.3045 0.0034
vt 0.4006 0.0035
vt 0.0072 0.2263
vt 0.1061 0.0034
vt 0.0064 0.0035
vt 0.1190 0.5067
vt 0.2310 0.3730
vt 0.3166 0.3730
vt 0.0069 0.3730
vt 0.0813 0.3730
vt 0.1567 0.3730
vt 0.1190 0.5067
vt 0.2310 0.3730
vt 0.3166 0.3730
vt 0.0069 0.3730
vt 0.0813 0.3730
vt 0.1567 0.3730
vt 0.1190 0.5067
vt 0.2310 0.3730
vt 0.3166 0.3730
vt 0.0069 0.3730
vt 0.0813 0.3730
vt 0.1567 0.3730
vn -0.6389 -0.0738 0.7657
vn -0.9998 -0.0162 0.0132
vn -0.3920 -0.8419 0.3709
vn -0.3675 0.8873 -0.2788
vn 0.0091 0.6505 -0.7594
vn -0.3375 0.7733 0.5367
vn 0.0816 0.6633 -0.7439
vn 0.0279 0.7418 -0.6700
vn 0.1215 0.7115 -0.6921
vn 0.0525 0.7937 -0.6060
vn 0.5157 0.5797 0.6309
vn 0.4005 0.5931 0.6985
vn 0.3648 0.8655 0.3434
vn 0.2780 0.8806 -0.3838
vn 0.0168 0.7672 -0.6412
vn 0.0815 0.6633 -0.7439
vn 0.4393 0.8350 0.3313
vn -0.1004 -0.1167 -0.9881
vn -0.8820 -0.4704 0.0289
vn -0.7391 -0.4153 -0.5303
vn 0.3619 0.2052 -0.9094
vn 0.7090 0.5149 -0.4818
vn 0.6824 0.7297 0.0435
vn 0.4063 0.7294 0.5503
vn 0.1847 0.7113 0.6781
vn -0.3525 0.4526 0.8191
vn -0.7993 -0.0420 0.5994
vn -0.7391 -0.4152 -0.5304
vn 0.7038 0.2678 0.6580
vn 0.7738 0.0687 -0.6297
vn 0.9716 0.2158 -0.0967
vn 0.2621 0.2893 0.9207
vn -0.3667 0.2865 0.8851
vn -0.8166 0.3949 0.4209
vn -0.8941 0.3857 -0.2276
vn -0.7264 0.4564 -0.5138
vn -0.2761 0.4034 -0.8724
vn 0.2219 0.2443 -0.9440
vn 0.9716 0.2159 -0.0967
vn 0.8929 0.0997 -0.4391
vn -0.3031 -0.0564 -0.9513
vn 0.2912 0.0229 -0.9564
vn 0.9824 0.1741 0.0671
vn 0.7159 0.2799 0.6397
vn 0.0965 0.4094 0.9072
vn -0.5950 0.3746 0.7111
vn -0.8188 0.3500 0.4550
vn -0.9673 0.2287 -0.1096
vn -0.8312 0.0891 -0.5489
vn 0.2911 0.0229 -0.9564
vn 0.6004 0.7879 -0.1369
vn 0.7735 0.5996 -0.2054
vn 0.1188 0.1663 -0.9789
vn -0.2830 0.6624 -0.6937
vn -0.4117 -0.0041 -0.9113
vn 0.0916 0.9939 -0.0615
vn 0.8456 0.5313 -0.0521
vn 0.4546 -0.0211 -0.8904
vn 0.0581 -0.0076 -0.9983
vn -0.2975 -0.0868 -0.9508
vn 0.4232 0.7026 0.5721
vn 0.2060 0.7105 0.6729
vn 0.8038 0.5676 -0.1781
vn -0.1527 0.5768 0.8025
vn -0.2480 0.5822 0.7743
vn -0.0144 0.9649 0.2624
vn -0.1498 0.9401 0.3063
vn 0.1926 0.9802 -0.0465
vn 0.5690 0.5811 -0.5819
vn 0.6339 0.3861 -0.6702
vn 0.2965 0.6548 0.6952
vn 0.4423 0.6983 0.5628
vn 0.5552 0.8190 -0.1447
vn -0.0392 0.9977 -0.0556
vn 0.0040 0.6406 -0.7679
vn -0.0317 0.8628 0.5045
vn 0.4133 0.8282 0.3785
vn 0.6534 0.7565 0.0270
vn 0.4079 0.3037 -0.8611
vn 0.0169 0.1781 -0.9839
vn -0.2125 -0.3574 0.9094
vn 0.0175 0.3136 0.9494
vn 0.4082 0.3800 0.8301
vn -0.3376 0.7733 0.5367
vn 0.0525 0.7938 -0.6060
vn 0.4392 0.8350 0.3314
vn 0.0013 0.7460 0.6660
vn -0.9089 0.4088 -0.0824
vn -0.2855 0.4627 0.8393
vn -0.9415 0.1898 0.2786
vn -0.4593 0.4954 0.7373
vn -0.4118 -0.0041 -0.9113
vn -0.7401 -0.1076 -0.6639
vn 0.0917 0.9939 -0.0616
vn 0.0013 0.7460 0.6659
vn 0.4099 0.5711 0.7113
vn 0.4523 0.6866 0.5691
vn 0.1109 0.6455 0.7556
vn -0.5182 0.8426 0.1463
vn -0.2012 0.8876 -0.4144
vn -0.5306 0.8424 0.0939
vn -0.3378 0.9049 -0.2589
vn -0.1660 0.9852 -0.0435
vn 0.2830 0.5707 -0.7708
vn 0.6338 0.3861 -0.6702
vn -0.5182 0.8426 0.1462
vn -0.3582 0.7257 0.5874
vn -0.0436 0.8509 0.5235
vn -0.0144 0.9648 0.2624
vn -0.1430 0.9491 0.2808
vn -0.0318 0.8628 0.5046
vn -0.3160 0.6750 0.6667
vn -0.0013 0.6684 0.7438
vn 0.1262 0.8358 0.5343
vn -0.3023 0.7780 0.5507
vn -0.1216 0.8543 0.5053
vn -0.2164 0.9255 0.3110
vn -0.0317 0.8628 0.5046
vn -0.4240 0.9055 -0.0198
vn -0.3544 0.9277 0.1178
vn 0.0040 0.6405 -0.7679
vn -0.3405 0.6386 -0.6901
vn 0.0070 0.9921 0.1252
vn 0.3473 0.9369 0.0398
vn 0.1103 0.8872 -0.4479
vn -0.3321 0.9259 -0.1801
vn -0.2991 0.8031 0.5154
vn 0.1845 0.7571 0.6267
vn -0.0834 0.9921 -0.0936
vn -0.2966 0.9369 0.1851
vn 0.1926 0.8872 0.4192
vn 0.3720 0.9259 -0.0658
vn -0.0868 0.8031 -0.5895
vn -0.5346 0.7571 -0.3756
vn -0.1176 0.9921 0.0433
vn 0.0635 0.9369 0.3438
vn 0.4606 0.8872 -0.0255
vn 0.0751 0.9259 -0.3703
vn -0.5803 0.8031 -0.1353
vn -0.5454 0.7571 0.3597
usemtl NorthrendNatural02
s 1
f 1/1/1 2/2/2 3/3/3
f 4/4/4 5/5/5 2/2/2
f 4/4/4 2/2/2 1/1/1
f 6/6/6 4/4/4 1/1/1
f 7/7/7 8/8/8 5/5/5
f 7/7/7 5/5/5 4/4/4
f 9/9/9 7/7/7 4/4/4
f 9/9/9 4/4/4 6/6/6
f 10/10/10 9/9/9 6/6/6
f 11/11/11 12/12/12 13/13/13
f 11/11/11 13/13/13 14/14/14
f 14/14/14 13/13/13 15/15/15
f 14/14/14 15/15/15 16/16/16
f 16/16/16 15/15/15 17/17/8
f 18/18/17 11/11/11 14/14/14
f 18/18/17 14/14/14 19/19/9
f 19/19/9 14/14/14 16/16/16
f 20/20/10 18/18/17 19/19/9
f 21/21/18 22/22/19 23/23/20
f 21/21/18 23/23/20 24/24/21
f 25/25/22 21/21/18 24/24/21
f 25/25/22 24/24/21 26/26/23
f 27/27/24 25/25/22 26/26/23
f 27/27/24 26/26/23 28/28/25
f 29/29/26 27/27/24 28/28/25
f 29/29/26 28/28/25 30/30/27
f 31/31/19 29/29/26 30/30/27
f 31/31/19 30/30/27 32/32/28
f 33/33/29 34/34/30 35/35/31
f 33/33/29 35/35/31 36/36/32
f 37/37/33 33/33/29 36/36/32
f 37/37/33 36/36/32 38/38/34
f 39/39/35 37/37/33 38/38/34
f 39/39/35 38/38/34 40/40/36
f 41/41/37 39/39/35 40/40/36
f 41/41/37 40/40/36 42/42/38
f 43/43/30 41/41/37 42/42/38
f 43/43/30 42/42/38 44/44/39
f 45/45/40 46/46/41 47/47/42
f 45/45/40 47/47/42 48/48/43
f 49/49/44 45/45/40 48/48/43
f 49/49/44 48/48/43 50/50/45
f 51/51/46 49/49/44 50/50/45
f 51/51/46 50/50/45 52/52/47
f 53/53/48 51/51/46 52/52/47
f 53/53/48 52/52/47 54/54/49
f 55/55/41 53/53/48 54/54/49
f 55/55/41 54/54/49 56/56/50
f 57/57/51 58/58/52 59/59/53
f 57/57/51 59/59/53 60/60/54
f 60/60/54 59/59/53 61/61/55
f 62/62/56 57/57/51 60/60/54
f 58/58/52 63/63/57 64/64/58
f 58/58/52 64/64/58 59/59/53
f 59/59/53 64/64/58 65/65/59
f 59/59/53 65/65/59 61/61/55
f 61/61/55 65/65/59 66/66/60
f 67/67/61 68/68/62 69/69/63
f 70/70/64 68/68/62 67/67/61
f 71/71/65 70/70/64 67/67/61
f 70/70/64 72/72/66 68/68/62
f 73/73/67 71/71/65 74/74/68
f 71/71/65 67/67/61 74/74/68
f 74/74/68 67/67/61 75/75/69
f 67/67/61 69/69/63 75/75/69
f 75/75/69 69/69/63 76/76/70
f 77/77/71 78/78/72 79/79/73
f 77/77/71 79/79/73 80/80/74
f 80/80/74 79/79/73 81/81/75
f 82/82/76 77/77/71 80/80/74
f 78/78/72 83/83/77 84/84/78
f 78/78/72 84/84/78 79/79/73
f 79/79/73 84/84/78 85/85/79
f 79/79/73 85/85/79 81/81/75
f 81/81/75 85/85/79 86/86/80
f 87/87/1 88/88/3 89/89/81
f 87/87/1 89/89/81 90/90/82
f 90/90/82 89/89/81 91/91/83
f 90/90/82 91/91/83 92/92/11
f 92/92/11 91/91/83 93/93/12
f 94/94/84 87/87/1 90/90/82
f 95/95/85 94/94/84 96/96/86
f 94/94/84 90/90/82 96/96/86
f 96/96/86 90/90/82 92/92/11
f 97/97/56 98/98/54 99/99/87
f 98/98/54 100/100/88 99/99/87
f 99/99/87 100/100/88 101/101/89
f 100/100/88 102/102/90 101/101/89
f 101/101/89 102/102/90 103/103/91
f 98/98/54 104/104/92 100/100/88
f 104/104/92 105/105/93 100/100/88
f 100/100/88 105/105/93 102/102/90
f 104/104/92 106/106/60 105/105/93
f 107/107/94 108/108/95 109/109/51
f 108/108/95 110/110/96 109/109/51
f 109/109/51 110/110/96 111/111/52
f 110/110/96 112/112/97 111/111/52
f 111/111/52 112/112/97 113/113/57
f 108/108/95 114/114/89 110/110/96
f 114/114/89 115/115/98 110/110/96
f 110/110/96 115/115/98 112/112/97
f 114/114/89 116/116/91 115/115/98
f 117/117/67 118/118/68 119/119/99
f 118/118/68 120/120/100 119/119/99
f 119/119/99 120/120/100 121/121/101
f 120/120/100 122/122/102 121/121/101
f 121/121/101 122/122/102 123/123/103
f 118/118/68 124/124/69 120/120/100
f 124/124/69 125/125/104 120/120/100
f 120/120/100 125/125/104 122/122/102
f 124/124/69 126/126/105 125/125/104
f 127/127/67 128/128/106 129/129/65
f 128/128/106 130/130/107 129/129/65
f 129/129/65 130/130/107 131/131/64
f 130/130/107 132/132/108 131/131/64
f 131/131/64 132/132/108 133/133/109
f 128/128/106 134/134/101 130/130/107
f 134/134/101 135/135/110 130/130/107
f 130/130/107 135/135/110 132/132/108
f 134/134/101 136/136/103 135/135/110
f 137/137/111 138/138/112 139/139/71
f 138/138/112 140/140/113 139/139/71
f 139/139/71 140/140/113 141/141/72
f 140/140/113 142/142/114 141/141/72
f 141/141/72 142/142/114 143/143/77
f 138/138/112 144/144/115 140/140/113
f 144/144/115 145/145/116 140/140/113
f 140/140/113 145/145/116 142/142/114
f 144/144/115 146/146/117 145/145/116
f 147/147/118 148/148/74 149/149/112
f 148/148/74 150/150/119 149/149/112
f 149/149/112 150/150/119 151/151/115
f 150/150/119 152/152/120 151/151/115
f 151/151/115 152/152/120 153/153/117
f 148/148/74 154/154/121 150/150/119
f 154/154/121 155/155/122 150/150/119
f 150/150/119 155/155/122 152/152/120
f 154/154/121 156/156/80 155/155/122
f 157/157/123 158/158/124 159/159/125
f 157/157/123 159/159/125 160/160/126
f 157/157/123 160/160/126 161/161/127
f 157/157/123 161/161/127 162/162/128
f 157/157/123 162/162/128 158/158/124
f 163/163/129 164/164/130 165/165/131
f 163/163/129 165/165/131 166/166/132
f 163/163/129 166/166/132 167/167/133
f 163/163/129 167/167/133 168/168/134
f 163/163/129 168/168/134 164/164/130
f 169/169/135 170/170/136 171/171/137
f 169/169/135 171/171/137 172/172/138
f 169/169/135 172/172/138 173/173/139
f 169/169/135 173/173/139 174/174/140
f 169/169/135 174/174/140 170/170/136
