# Blender v2.78 (sub 0) OBJ File: ''
# www.blender.org
mtllib ruins02.mtl
o NorthrendRubble2
v 0.825361 0.850618 -0.494770
v 0.357147 1.129232 -0.759821
v 0.308103 1.123744 -0.189835
v 0.776150 0.845126 -0.154510
v 0.932229 -0.005260 -0.571911
v 0.314027 -0.010627 -0.868695
v 0.357147 1.129232 -0.759821
v 0.825361 0.850618 -0.494770
v 0.314027 -0.010627 -0.868695
v 0.199727 -0.017146 -0.127485
v 0.308103 1.123744 -0.189835
v 0.357147 1.129232 -0.759821
v 0.199727 -0.017146 -0.127485
v 0.817768 -0.011779 -0.060428
v 0.776150 0.845126 -0.154510
v 0.308103 1.123744 -0.189835
v 0.817768 -0.011779 -0.060428
v 0.932229 -0.005260 -0.571911
v 0.825361 0.850618 -0.494770
v 0.776150 0.845126 -0.154510
v -0.241061 1.062534 -0.027963
v -0.532829 1.141878 -0.955529
v -1.637043 1.136390 -0.119687
v -1.030784 1.057053 0.228222
v 0.163289 0.177845 0.013756
v -0.518237 0.272115 -1.280102
v -0.532829 1.141878 -0.955529
v -0.241061 1.062534 -0.027963
v -0.518237 0.272115 -1.280102
v -1.976368 0.265596 -0.162777
v -1.637043 1.136390 -0.119687
v -0.532829 1.141878 -0.955529
v -1.976368 0.265596 -0.162777
v -1.137075 0.171326 0.535782
v -1.030784 1.057053 0.228222
v -1.637043 1.136390 -0.119687
v -1.137075 0.171326 0.535782
v 0.163289 0.177845 0.013756
v -0.241061 1.062534 -0.027963
v -1.030784 1.057053 0.228222
v 0.066893 0.283000 0.599334
v 0.285365 0.283000 -0.971728
v -1.472272 0.283000 -1.547443
v -1.566278 0.283000 0.879526
v 0.142816 -0.002880 0.807978
v 0.429424 -0.002880 -1.083642
v 0.285365 0.283000 -0.971728
v 0.066893 0.283000 0.599334
v 0.429424 -0.002880 -1.083642
v -1.558358 -0.002880 -1.708272
v -1.472272 0.283000 -1.547443
v 0.285365 0.283000 -0.971728
v -1.558358 -0.002880 -1.708272
v -1.720496 -0.002880 1.039251
v -1.566278 0.283000 0.879526
v -1.472272 0.283000 -1.547443
v -1.720496 -0.002880 1.039251
v 0.142816 -0.002880 0.807978
v 0.066893 0.283000 0.599334
v -1.566278 0.283000 0.879526
v 0.013478 2.463308 1.532055
v 0.651901 2.114883 1.349194
v 0.249508 2.210262 0.636135
v -0.053271 2.457820 0.986292
v -0.123246 -0.040845 1.975209
v 0.911430 0.001965 1.695657
v 0.651901 2.114883 1.349194
v 0.013478 2.463308 1.532055
v 0.911430 0.001965 1.695657
v 0.369331 -0.004552 0.606560
v 0.249508 2.210262 0.636135
v 0.651901 2.114883 1.349194
v 0.369331 -0.004552 0.606560
v -0.298290 -0.047364 1.063894
v -0.053271 2.457820 0.986292
v 0.249508 2.210262 0.636135
v -0.298290 -0.047364 1.063894
v -0.123246 -0.040845 1.975209
v 0.013478 2.463308 1.532055
v -0.053271 2.457820 0.986292
v -1.569885 0.635558 1.037510
v -1.195482 0.843475 0.892467
v -1.501414 0.839382 0.594672
v -1.743091 0.631462 0.848237
v -1.575866 -0.003155 1.135686
v -1.112237 -0.007162 0.919037
v -1.195482 0.843475 0.892467
v -1.569885 0.635558 1.037510
v -1.112237 -0.007162 0.919037
v -1.486179 -0.012027 0.502618
v -1.501414 0.839382 0.594672
v -1.195482 0.843475 0.892467
v -1.486179 -0.012027 0.502618
v -1.817091 -0.008022 0.827782
v -1.743091 0.631462 0.848237
v -1.501414 0.839382 0.594672
v -1.817091 -0.008022 0.827782
v -1.575866 -0.003155 1.135686
v -1.569885 0.635558 1.037510
v -1.743091 0.631462 0.848237
vt 0.7383 0.6603
vt 0.9975 0.6605
vt 0.9970 0.8320
vt 0.7385 0.8333
vt 0.0609 0.5730
vt 0.3014 0.5730
vt 0.2996 0.6299
vt 0.0675 0.6299
vt 0.0609 0.5730
vt 0.3014 0.5730
vt 0.2996 0.6299
vt 0.0675 0.6299
vt 0.0609 0.5730
vt 0.3014 0.5730
vt 0.2996 0.6299
vt 0.0675 0.6299
vt 0.0609 0.5730
vt 0.3014 0.5730
vt 0.2996 0.6299
vt 0.0675 0.6299
vt 0.7383 0.6603
vt 0.9975 0.6605
vt 0.9970 0.8320
vt 0.7385 0.8333
vt 0.0609 0.5730
vt 0.3014 0.5730
vt 0.2996 0.6299
vt 0.0675 0.6299
vt 0.0609 0.5730
vt 0.3014 0.5730
vt 0.2996 0.6299
vt 0.0675 0.6299
vt 0.0609 0.5730
vt 0.3014 0.5730
vt 0.2996 0.6299
vt 0.0675 0.6299
vt 0.0609 0.5730
vt 0.3014 0.5730
vt 0.2996 0.6299
vt 0.0675 0.6299
vt 0.2425 0.8441
vt 0.4560 0.8420
vt 0.4560 0.9818
vt 0.2418 0.9825
vt 0.2258 0.8262
vt 0.4679 0.8262
vt 0.4560 0.8420
vt 0.2425 0.8441
vt 0.4679 0.8262
vt 0.4679 0.9940
vt 0.4560 0.9818
vt 0.4560 0.8420
vt 0.4679 0.9940
vt 0.2258 0.9940
vt 0.2418 0.9825
vt 0.4560 0.9818
vt 0.2258 0.9940
vt 0.2258 0.8262
vt 0.2425 0.8441
vt 0.2418 0.9825
vt 0.7383 0.6603
vt 0.9975 0.6605
vt 0.9970 0.8320
vt 0.7385 0.8333
vt 0.0609 0.5730
vt 0.3014 0.5730
vt 0.2996 0.6299
vt 0.0675 0.6299
vt 0.0609 0.5730
vt 0.3014 0.5730
vt 0.2996 0.6299
vt 0.0675 0.6299
vt 0.0609 0.5730
vt 0.3014 0.5730
vt 0.2996 0.6299
vt 0.0675 0.6299
vt 0.0609 0.5730
vt 0.3014 0.5730
vt 0.2996 0.6299
vt 0.0675 0.6299
vt 0.7383 0.6603
vt 0.9975 0.6605
vt 0.9970 0.8320
vt 0.7385 0.8333
vt 0.0609 0.5730
vt 0.3014 0.5730
vt 0.2996 0.6299
vt 0.0675 0.6299
vt 0.0609 0.5730
vt 0.3014 0.5730
vt 0.2996 0.6299
vt 0.0675 0.6299
vt 0.0609 0.5730
vt 0.3014 0.5730
vt 0.2996 0.6299
vt 0.0675 0.6299
vt 0.0609 0.5730
vt 0.3014 0.5730
vt 0.2996 0.6299
vt 0.0675 0.6299
vn 0.4973 0.8648 0.0691
vn 0.4895 0.8706 0.0505
vn 0.4972 0.8649 0.0687
vn 0.5047 0.8589 0.0869
vn 0.4925 0.1066 -0.8638
vn 0.4312 0.0696 -0.8995
vn 0.4925 0.1066 -0.8637
vn 0.5506 0.1429 -0.8224
vn -0.9908 0.0656 -0.1182
vn -0.9848 0.0853 -0.1511
vn -0.9908 0.0656 -0.1183
vn -0.9953 0.0458 -0.0852
vn -0.0744 0.0809 0.9939
vn -0.1082 0.1033 0.9887
vn -0.0405 0.0584 0.9975
vn 0.9799 0.0827 0.1813
vn 0.9705 0.1015 0.2185
vn 0.9875 0.0638 0.1439
vn 0.0452 0.9928 0.1109
vn 0.0481 0.9964 0.0701
vn 0.0423 0.9876 0.1515
vn 0.8904 0.2908 -0.3503
vn 0.8754 0.1818 -0.4479
vn 0.8904 0.2908 -0.3502
vn 0.8861 0.3934 -0.2451
vn -0.5840 0.2713 -0.7651
vn -0.5870 0.2666 -0.7645
vn -0.5840 0.2712 -0.7651
vn -0.5810 0.2760 -0.7657
vn -0.5343 0.2376 0.8112
vn -0.5823 0.3282 0.7438
vn -0.4784 0.1435 0.8663
vn 0.3293 0.2457 0.9117
vn 0.3634 0.2089 0.9079
vn 0.2943 0.2818 0.9132
vn 0.0000 1.0000 0.0000
vn 0.9185 0.3723 0.1334
vn 0.9051 0.4024 0.1371
vn 0.9185 0.3722 0.1334
vn 0.9309 0.3417 0.1294
vn 0.2746 0.4379 -0.8561
vn 0.2737 0.4077 -0.8711
vn 0.2746 0.4378 -0.8561
vn 0.2752 0.4675 -0.8401
vn -0.9238 0.3803 -0.0448
vn -0.8909 0.4512 -0.0526
vn -0.9510 0.3071 -0.0368
vn 0.1267 0.5137 0.8486
vn 0.0982 0.6036 0.7912
vn 0.1537 0.4175 0.8956
vn 0.5117 0.8526 -0.1060
vn 0.4452 0.8855 -0.1328
vn 0.5750 0.8144 -0.0785
vn 0.2974 0.1661 0.9402
vn 0.2491 0.1864 0.9504
vn 0.3449 0.1453 0.9273
vn 0.8833 0.0407 -0.4670
vn 0.8938 0.0543 -0.4452
vn 0.8833 0.0407 -0.4671
vn 0.8721 0.0270 -0.4885
vn -0.6734 -0.0016 -0.7393
vn -0.5662 0.0299 -0.8237
vn -0.7674 -0.0330 -0.6403
vn -0.9837 0.0935 0.1536
vn -0.9785 0.0866 0.1873
vn -0.9837 0.0935 0.1537
vn -0.9877 0.1003 0.1198
vn -0.3680 0.8649 0.3412
vn -0.3491 0.8706 0.3467
vn -0.3681 0.8649 0.3412
vn -0.3869 0.8589 0.3355
vn 0.3563 0.1066 0.9283
vn 0.4228 0.0696 0.9035
vn 0.2875 0.1429 0.9471
vn 0.7192 0.0656 -0.6917
vn 0.7408 0.0853 -0.6663
vn 0.6965 0.0458 -0.7161
vn -0.7219 0.0809 -0.6873
vn -0.6965 0.1033 -0.7101
vn -0.7461 0.0584 -0.6633
vn -0.7611 0.0827 0.6433
vn -0.7839 0.1015 0.6125
vn -0.7369 0.0637 0.6730
usemtl NorthrendStructures
s 1
f 1/1/1 2/2/2 3/3/3
f 3/3/3 4/4/4 1/1/1
f 5/5/5 6/6/6 7/7/7
f 7/7/7 8/8/8 5/5/5
f 9/9/9 10/10/10 11/11/11
f 11/11/11 12/12/12 9/9/9
f 13/13/13 14/14/14 15/15/13
f 15/15/13 16/16/15 13/13/13
f 17/17/16 18/18/17 19/19/16
f 19/19/16 20/20/18 17/17/16
f 21/21/19 22/22/20 23/23/19
f 23/23/19 24/24/21 21/21/19
f 25/25/22 26/26/23 27/27/24
f 27/27/24 28/28/25 25/25/22
f 29/29/26 30/30/27 31/31/28
f 31/31/28 32/32/29 29/29/26
f 33/33/30 34/34/31 35/35/30
f 35/35/30 36/36/32 33/33/30
f 37/37/33 38/38/34 39/39/33
f 39/39/33 40/40/35 37/37/33
f 41/41/36 42/42/36 43/43/36
f 43/43/36 44/44/36 41/41/36
f 45/45/37 46/46/38 47/47/39
f 47/47/39 48/48/40 45/45/37
f 49/49/41 50/50/42 51/51/43
f 51/51/43 52/52/44 49/49/41
f 53/53/45 54/54/46 55/55/45
f 55/55/45 56/56/47 53/53/45
f 57/57/48 58/58/49 59/59/48
f 59/59/48 60/60/50 57/57/48
f 61/61/51 62/62/52 63/63/51
f 63/63/51 64/64/53 61/61/51
f 65/65/54 66/66/55 67/67/54
f 67/67/54 68/68/56 65/65/54
f 69/69/57 70/70/58 71/71/59
f 71/71/59 72/72/60 69/69/57
f 73/73/61 74/74/62 75/75/61
f 75/75/61 76/76/63 73/73/61
f 77/77/64 78/78/65 79/79/66
f 79/79/66 80/80/67 77/77/64
f 81/81/68 82/82/69 83/83/70
f 83/83/70 84/84/71 81/81/68
f 85/85/72 86/86/73 87/87/72
f 87/87/72 88/88/74 85/85/72
f 89/89/75 90/90/76 91/91/75
f 91/91/75 92/92/77 89/89/75
f 93/93/78 94/94/79 95/95/78
f 95/95/78 96/96/80 93/93/78
f 97/97/81 98/98/82 99/99/81
f 99/99/81 100/100/83 97/97/81
