# Blender v2.78 (sub 0) OBJ File: ''
# www.blender.org
mtllib ruins00.mtl
o NorthrendRubble0
v 0.932618 0.289657 0.878080
v 0.932618 0.289657 -1.710688
v -0.925982 0.289657 -1.710688
v -0.925982 0.289657 0.878080
v 1.072893 -0.051213 1.102603
v 1.072893 -0.051212 -1.876924
v 0.932618 0.289657 -1.710688
v 0.932618 0.289657 0.878080
v 1.072893 -0.051212 -1.876924
v -1.066254 -0.051212 -1.876924
v -0.925982 0.289657 -1.710688
v 0.932618 0.289657 -1.710688
v -1.066254 -0.051212 -1.876924
v -1.066254 -0.051213 1.102603
v -0.925982 0.289657 0.878080
v -0.925982 0.289657 -1.710688
v -1.066254 -0.051213 1.102603
v 1.072893 -0.051213 1.102603
v 0.932618 0.289657 0.878080
v -0.925982 0.289657 0.878080
v -1.537253 0.133570 1.111314
v -0.835570 0.133571 -0.104029
v -1.708129 0.133571 -0.607796
v -2.409803 0.133571 0.607541
v -1.532255 -0.051213 1.254736
v -0.724662 -0.051213 -0.144052
v -0.835570 0.133571 -0.104029
v -1.537253 0.133570 1.111314
v -0.724662 -0.051213 -0.144052
v -1.728921 -0.051212 -0.723859
v -1.708129 0.133571 -0.607796
v -0.835570 0.133571 -0.104029
v -1.728921 -0.051212 -0.723859
v -2.536514 -0.051213 0.674929
v -2.409803 0.133571 0.607541
v -1.708129 0.133571 -0.607796
v -2.536514 -0.051213 0.674929
v -1.532255 -0.051213 1.254736
v -1.537253 0.133570 1.111314
v -2.409803 0.133571 0.607541
v -0.158151 1.328900 0.027942
v 0.309834 1.312920 -0.841167
v -0.438782 1.286494 -1.095785
v -0.574428 1.292407 -0.341692
v -0.048738 0.300476 0.176714
v 0.468216 0.282170 -0.848134
v 0.309834 1.312920 -0.841167
v -0.158151 1.328900 0.027942
v 0.468216 0.282170 -0.848134
v -0.526775 0.248197 -1.180088
v -0.438782 1.286494 -1.095785
v 0.309834 1.312920 -0.841167
v -0.526775 0.248197 -1.180088
v -0.711388 0.256437 -0.270257
v -0.574428 1.292407 -0.341692
v -0.438782 1.286494 -1.095785
v -0.711388 0.256437 -0.270257
v -0.048738 0.300476 0.176714
v -0.158151 1.328900 0.027942
v -0.574428 1.292407 -0.341692
v 1.527226 0.325511 1.247814
v 1.417329 0.632682 0.664902
v 0.902389 0.626637 1.029126
v 1.205646 0.319460 1.448460
v 1.668229 -0.006489 1.282932
v 1.478344 -0.012406 0.551124
v 1.417329 0.632682 0.664902
v 1.527226 0.325511 1.247814
v 1.478344 -0.012406 0.551124
v 0.772772 -0.019593 0.982218
v 0.902389 0.626637 1.029126
v 1.417329 0.632682 0.664902
v 0.772772 -0.019593 0.982218
v 1.156016 -0.013676 1.550447
v 1.205646 0.319460 1.448460
v 0.902389 0.626637 1.029126
v 1.156016 -0.013676 1.550447
v 1.668229 -0.006489 1.282932
v 1.527226 0.325511 1.247814
v 1.205646 0.319460 1.448460
vt 0.2425 0.8441
vt 0.4560 0.8420
vt 0.4560 0.9818
vt 0.2418 0.9825
vt 0.2258 0.8262
vt 0.4679 0.8262
vt 0.4560 0.8420
vt 0.2425 0.8441
vt 0.4679 0.8262
vt 0.4679 0.9940
vt 0.4560 0.9818
vt 0.4560 0.8420
vt 0.4679 0.9940
vt 0.2258 0.9940
vt 0.2418 0.9825
vt 0.4560 0.9818
vt 0.2258 0.9940
vt 0.2258 0.8262
vt 0.2425 0.8441
vt 0.2418 0.9825
vt 0.2425 0.8441
vt 0.4560 0.8420
vt 0.4560 0.9818
vt 0.2418 0.9825
vt 0.2258 0.8262
vt 0.4679 0.8262
vt 0.4560 0.8420
vt 0.2425 0.8441
vt 0.4679 0.8262
vt 0.4679 0.9940
vt 0.4560 0.9818
vt 0.4560 0.8420
vt 0.4679 0.9940
vt 0.2258 0.9940
vt 0.2418 0.9825
vt 0.4560 0.9818
vt 0.2258 0.9940
vt 0.2258 0.8262
vt 0.2425 0.8441
vt 0.2418 0.9825
vt 0.7383 0.6603
vt 0.9975 0.6605
vt 0.9970 0.8320
vt 0.7385 0.8333
vt 0.0609 0.5730
vt 0.3014 0.5730
vt 0.2996 0.6299
vt 0.0675 0.6299
vt 0.0609 0.5730
vt 0.3014 0.5730
vt 0.2996 0.6299
vt 0.0675 0.6299
vt 0.0609 0.5730
vt 0.3014 0.5730
vt 0.2996 0.6299
vt 0.0675 0.6299
vt 0.0609 0.5730
vt 0.3014 0.5730
vt 0.2996 0.6299
vt 0.0675 0.6299
vt 0.7383 0.6603
vt 0.9975 0.6605
vt 0.9970 0.8320
vt 0.7385 0.8333
vt 0.0609 0.5730
vt 0.3014 0.5730
vt 0.2996 0.6299
vt 0.0675 0.6299
vt 0.0609 0.5730
vt 0.3014 0.5730
vt 0.2996 0.6299
vt 0.0675 0.6299
vt 0.0609 0.5730
vt 0.3014 0.5730
vt 0.2996 0.6299
vt 0.0675 0.6299
vt 0.0609 0.5730
vt 0.3014 0.5730
vt 0.2996 0.6299
vt 0.0675 0.6299
vn 0.0000 1.0000 0.0000
vn 0.9248 0.3806 0.0000
vn 0.0000 0.4383 -0.8988
vn -0.9248 0.3805 0.0000
vn 0.0000 0.5501 0.8351
vn 0.8009 0.3805 0.4624
vn 0.4494 0.4383 -0.7784
vn -0.8009 0.3805 -0.4624
vn -0.8009 0.3806 -0.4624
vn -0.4176 0.5501 0.7232
vn -0.0470 0.9986 -0.0259
vn -0.0245 0.9992 -0.0316
vn -0.0470 0.9986 -0.0260
vn -0.0694 0.9974 -0.0203
vn 0.8783 0.1465 0.4552
vn 0.8859 0.1331 0.4445
vn 0.8704 0.1600 0.4657
vn 0.3172 0.0529 -0.9469
vn 0.3145 0.0503 -0.9479
vn 0.3171 0.0529 -0.9469
vn 0.3197 0.0555 -0.9459
vn -0.9765 0.1062 -0.1878
vn -0.9733 0.1150 -0.1985
vn -0.9765 0.1062 -0.1877
vn -0.9794 0.0974 -0.1769
vn -0.6146 0.0994 0.7826
vn -0.5609 0.0598 0.8257
vn -0.6643 0.1385 0.7345
vn 0.2684 0.8649 0.4241
vn 0.2773 0.8706 0.4065
vn 0.2594 0.8589 0.4416
vn 0.9568 0.2693 -0.1099
vn 0.9589 0.1348 -0.2499
vn 0.9186 0.3938 0.0343
vn -0.5464 0.1268 -0.8279
vn -0.5155 0.1644 -0.8410
vn -0.5759 0.0889 -0.8127
vn -0.7856 0.1961 0.5868
vn -0.7967 0.2823 0.5344
vn -0.7856 0.1960 0.5868
vn -0.7664 0.1078 0.6332
vn 0.4810 0.2287 0.8464
vn 0.4416 0.2778 0.8531
vn 0.4810 0.2288 0.8464
vn 0.5184 0.1788 0.8362
usemtl NorthrendStructures
s 1
f 1/1/1 2/2/1 3/3/1
f 3/3/1 4/4/1 1/1/1
f 5/5/2 6/6/2 7/7/2
f 7/7/2 8/8/2 5/5/2
f 9/9/3 10/10/3 11/11/3
f 11/11/3 12/12/3 9/9/3
f 13/13/4 14/14/4 15/15/4
f 15/15/4 16/16/4 13/13/4
f 17/17/5 18/18/5 19/19/5
f 19/19/5 20/20/5 17/17/5
f 21/21/1 22/22/1 23/23/1
f 23/23/1 24/24/1 21/21/1
f 25/25/6 26/26/6 27/27/6
f 27/27/6 28/28/6 25/25/6
f 29/29/7 30/30/7 31/31/7
f 31/31/7 32/32/7 29/29/7
f 33/33/8 34/34/9 35/35/9
f 35/35/9 36/36/8 33/33/8
f 37/37/10 38/38/10 39/39/10
f 39/39/10 40/40/10 37/37/10
f 41/41/11 42/42/12 43/43/13
f 43/43/13 44/44/14 41/41/11
f 45/45/15 46/46/16 47/47/15
f 47/47/15 48/48/17 45/45/15
f 49/49/18 50/50/19 51/51/20
f 51/51/20 52/52/21 49/49/18
f 53/53/22 54/54/23 55/55/24
f 55/55/24 56/56/25 53/53/22
f 57/57/26 58/58/27 59/59/26
f 59/59/26 60/60/28 57/57/26
f 61/61/29 62/62/30 63/63/29
f 63/63/29 64/64/31 61/61/29
f 65/65/32 66/66/33 67/67/32
f 67/67/32 68/68/34 65/65/32
f 69/69/35 70/70/36 71/71/35
f 71/71/35 72/72/37 69/69/35
f 73/73/38 74/74/39 75/75/40
f 75/75/40 76/76/41 73/73/38
f 77/77/42 78/78/43 79/79/44
f 79/79/44 80/80/45 77/77/42
