# Blender v2.78 (sub 0) OBJ File: ''
# www.blender.org
mtllib ruins01.mtl
o NorthrendRubble1
v 0.217366 0.196007 1.081228
v 0.698796 0.196007 0.090497
v -0.065380 0.196007 -0.292930
v -0.558326 0.196007 1.033780
v 0.222735 -0.002520 1.235326
v 0.817955 -0.002520 0.047497
v 0.698796 0.196007 0.090497
v 0.217366 0.196007 1.081228
v 0.817955 -0.002520 0.047497
v -0.087722 -0.002520 -0.417628
v -0.065380 0.196007 -0.292930
v 0.698796 0.196007 0.090497
v -0.087722 -0.002520 -0.417628
v -0.694462 -0.002520 1.106179
v -0.558326 0.196007 1.033780
v -0.065380 0.196007 -0.292930
v -0.694462 -0.002520 1.106179
v 0.222735 -0.002520 1.235326
v 0.217366 0.196007 1.081228
v -0.558326 0.196007 1.033780
v -0.403138 0.738363 0.239026
v 0.126964 0.807786 -0.426476
v -1.019648 0.802987 -0.818510
v -0.975386 0.733564 -0.208496
v -0.235558 -0.035739 0.552756
v 0.369552 0.046746 -0.574706
v 0.126964 0.807786 -0.426476
v -0.403138 0.738363 0.239026
v 0.369552 0.046746 -0.574706
v -1.154420 0.041042 -1.085742
v -1.019648 0.802987 -0.818510
v 0.126964 0.807786 -0.426476
v -1.154420 0.041042 -1.085742
v -1.250502 -0.041443 -0.135114
v -0.975386 0.733564 -0.208496
v -1.019648 0.802987 -0.818510
v -1.250502 -0.041443 -0.135114
v -0.235558 -0.035739 0.552756
v -0.403138 0.738363 0.239026
v -0.975386 0.733564 -0.208496
v 0.926693 0.258891 -0.153704
v 1.261461 0.502678 -0.484711
v 0.793285 0.497874 -0.661878
v 0.651963 0.254091 -0.276246
v 0.966168 -0.004603 -0.045344
v 1.363401 -0.009299 -0.495060
v 1.261461 0.502678 -0.484711
v 0.926693 0.258891 -0.153704
v 1.363401 -0.009299 -0.495060
v 0.766623 -0.015003 -0.767981
v 0.793285 0.497874 -0.661878
v 1.261461 0.502678 -0.484711
v 0.766623 -0.015003 -0.767981
v 0.562831 -0.010307 -0.263641
v 0.651963 0.254091 -0.276246
v 0.793285 0.497874 -0.661878
v 0.562831 -0.010307 -0.263641
v 0.966168 -0.004603 -0.045344
v 0.926693 0.258891 -0.153704
v 0.651963 0.254091 -0.276246
vt 0.2425 0.8441
vt 0.4560 0.8420
vt 0.4560 0.9818
vt 0.2418 0.9825
vt 0.2258 0.8262
vt 0.4679 0.8262
vt 0.4560 0.8420
vt 0.2425 0.8441
vt 0.4679 0.8262
vt 0.4679 0.9940
vt 0.4560 0.9818
vt 0.4560 0.8420
vt 0.4679 0.9940
vt 0.2258 0.9940
vt 0.2418 0.9825
vt 0.4560 0.9818
vt 0.2258 0.9940
vt 0.2258 0.8262
vt 0.2425 0.8441
vt 0.2418 0.9825
vt 0.7383 0.6603
vt 0.9975 0.6605
vt 0.9970 0.8320
vt 0.7385 0.8333
vt 0.0609 0.5730
vt 0.3014 0.5730
vt 0.2996 0.6299
vt 0.0675 0.6299
vt 0.0609 0.5730
vt 0.3014 0.5730
vt 0.2996 0.6299
vt 0.0675 0.6299
vt 0.0609 0.5730
vt 0.3014 0.5730
vt 0.2996 0.6299
vt 0.0675 0.6299
vt 0.0609 0.5730
vt 0.3014 0.5730
vt 0.2996 0.6299
vt 0.0675 0.6299
vt 0.7383 0.6603
vt 0.9975 0.6605
vt 0.9970 0.8320
vt 0.7385 0.8333
vt 0.0609 0.5730
vt 0.3014 0.5730
vt 0.2996 0.6299
vt 0.0675 0.6299
vt 0.0609 0.5730
vt 0.3014 0.5730
vt 0.2996 0.6299
vt 0.0675 0.6299
vt 0.0609 0.5730
vt 0.3014 0.5730
vt 0.2996 0.6299
vt 0.0675 0.6299
vt 0.0609 0.5730
vt 0.3014 0.5730
vt 0.2996 0.6299
vt 0.0675 0.6299
vn 0.0000 1.0000 0.0000
vn 0.8323 0.3723 0.4107
vn 0.8184 0.4024 0.4101
vn 0.8323 0.3722 0.4107
vn 0.8453 0.3417 0.4108
vn 0.4073 0.4363 -0.8024
vn 0.4074 0.4524 -0.7933
vn 0.4070 0.4200 -0.8112
vn -0.8635 0.3797 -0.3319
vn -0.8303 0.4488 -0.3306
vn -0.8917 0.3084 -0.3313
vn -0.0845 0.4965 0.8639
vn -0.1108 0.6075 0.7865
vn -0.0566 0.3761 0.9249
vn -0.0666 0.9928 0.0995
vn -0.0312 0.9964 0.0791
vn -0.0667 0.9928 0.0995
vn -0.1020 0.9876 0.1198
vn 0.7883 0.2908 0.5423
vn 0.8608 0.1818 0.4753
vn 0.6987 0.3934 0.5976
vn 0.3077 0.2713 -0.9120
vn 0.3055 0.2666 -0.9141
vn 0.3077 0.2712 -0.9120
vn 0.3099 0.2760 -0.9098
vn -0.9713 0.2376 0.0106
vn -0.9423 0.3282 -0.0668
vn -0.9857 0.1435 0.0879
vn -0.5717 0.2457 0.7828
vn -0.5495 0.2089 0.8090
vn -0.5925 0.2818 0.7546
vn -0.2015 0.8649 0.4597
vn -0.1819 0.8706 0.4572
vn -0.2016 0.8649 0.4597
vn -0.2211 0.8589 0.4620
vn 0.6261 0.2693 0.7318
vn 0.7433 0.1348 0.6552
vn 0.4852 0.3938 0.7807
vn 0.3808 0.1268 -0.9159
vn 0.4089 0.1644 -0.8976
vn 0.3517 0.0889 -0.9319
vn -0.9258 0.1960 -0.3231
vn -0.8885 0.2823 -0.3617
vn -0.9258 0.1960 -0.3232
vn -0.9535 0.1078 -0.2813
vn -0.4327 0.2288 0.8720
vn -0.4603 0.2778 0.8432
vn -0.4034 0.1788 0.8974
usemtl NorthrendStructures
s 1
f 1/1/1 2/2/1 3/3/1
f 3/3/1 4/4/1 1/1/1
f 5/5/2 6/6/3 7/7/4
f 7/7/4 8/8/5 5/5/2
f 9/9/6 10/10/7 11/11/6
f 11/11/6 12/12/8 9/9/6
f 13/13/9 14/14/10 15/15/9
f 15/15/9 16/16/11 13/13/9
f 17/17/12 18/18/13 19/19/12
f 19/19/12 20/20/14 17/17/12
f 21/21/15 22/22/16 23/23/17
f 23/23/17 24/24/18 21/21/15
f 25/25/19 26/26/20 27/27/19
f 27/27/19 28/28/21 25/25/19
f 29/29/22 30/30/23 31/31/24
f 31/31/24 32/32/25 29/29/22
f 33/33/26 34/34/27 35/35/26
f 35/35/26 36/36/28 33/33/26
f 37/37/29 38/38/30 39/39/29
f 39/39/29 40/40/31 37/37/29
f 41/41/32 42/42/33 43/43/34
f 43/43/34 44/44/35 41/41/32
f 45/45/36 46/46/37 47/47/36
f 47/47/36 48/48/38 45/45/36
f 49/49/39 50/50/40 51/51/39
f 51/51/39 52/52/41 49/49/39
f 53/53/42 54/54/43 55/55/44
f 55/55/44 56/56/45 53/53/42
f 57/57/46 58/58/47 59/59/46
f 59/59/46 60/60/48 57/57/46
