# Blender v2.78 (sub 0) OBJ File: ''
# www.blender.org
mtllib spearBody0.mtl
o ImpaledBody1
v 0.026357 2.557369 0.165121
v 0.113076 2.760903 -0.096780
v 0.147122 2.589709 -0.075710
v -0.116771 2.621452 0.393216
v -0.153700 2.760654 0.374276
v 0.113076 2.760903 -0.096780
v -0.374447 2.651535 0.586575
v -0.283419 2.650284 0.469516
v -0.211397 2.960860 0.452674
v -0.455087 2.608765 0.284046
v -0.422377 2.714000 0.248690
v -0.590537 2.638672 0.526988
v -0.608824 2.977072 0.207731
v -0.358238 3.174164 0.439332
v 0.221044 2.763051 -0.364744
v 0.139058 2.986032 -0.173579
v 0.153062 2.754360 -0.233557
v -0.074068 2.687843 -0.311438
v -0.128646 2.717548 -0.273016
v 0.084889 2.734765 -0.535147
v -0.271777 2.979620 -0.414506
v 0.042475 3.199840 -0.293498
v 0.273018 2.182852 0.391992
v 0.401867 2.195505 0.621225
v 0.298270 1.650793 0.434233
v 0.017612 2.168051 0.417447
v -0.050716 1.621754 0.468188
v 0.131450 2.226425 0.638031
v 0.120390 1.653806 0.763655
v 0.351582 1.678933 0.691133
v 0.417480 1.338741 0.840325
v 0.598584 1.338814 0.463722
v -0.139618 1.487783 0.689691
v -0.107717 1.511529 0.460575
v 0.026357 2.557369 0.165121
v 0.432838 2.196518 0.308048
v 0.506576 2.720561 0.437271
v 0.694669 2.214900 0.299970
v 0.492582 2.723767 -0.018325
v 0.569296 2.239221 0.059043
v 0.147122 2.589709 -0.075710
v 0.325850 2.176154 0.077301
v 0.569296 2.239221 0.059043
v 0.692807 1.674778 0.202509
v 0.634592 1.664964 -0.033827
v 0.291701 1.661749 -0.029354
v 0.325850 2.176154 0.077301
v 0.453121 1.714367 0.268649
v 0.432838 2.196518 0.308048
v 0.694669 2.214900 0.299970
v 0.248065 1.612335 -0.067421
v 0.611148 1.319511 0.490364
v 0.412597 1.572931 -0.226961
v 0.817250 1.315378 0.126863
v 0.250031 -0.233454 -0.303467
v 0.122104 -0.257034 -0.209073
v -0.186031 3.536848 0.147208
v -0.090563 3.554460 0.076763
v 0.268997 -0.247752 -0.144511
v -0.076409 3.543792 0.195389
v -0.177189 4.094076 0.196271
v 0.221044 2.763051 -0.364744
v 0.065743 2.387952 -0.565703
v 0.084889 2.734765 -0.535147
v 0.190019 2.364210 -0.248132
v 0.153062 2.754360 -0.233557
v -0.057658 2.404503 -0.339500
v -0.074068 2.687843 -0.311438
v -0.188458 3.188303 -0.146717
v 0.042475 3.199840 -0.293498
v -0.296710 3.054016 -0.281805
v 0.332293 3.087672 0.338632
v 0.139058 2.986032 -0.173579
v 0.318041 2.962092 -0.049854
v 0.113076 2.760903 -0.096780
v -0.128646 2.717548 -0.273016
v -0.271777 2.979620 -0.414506
v -0.273699 2.241022 0.488320
v -0.454000 2.313416 0.312601
v -0.283419 2.650284 0.469516
v -0.374447 2.651535 0.586575
v -0.611027 2.271217 0.513151
v -0.590537 2.638672 0.526988
v -0.455087 2.608765 0.284046
v -0.064018 2.220540 -0.442489
v 0.065743 2.387952 -0.565703
v 0.257828 2.127247 -0.497439
v 0.204953 2.105664 -0.203620
v 0.190019 2.364210 -0.248132
v -0.057658 2.404503 -0.339500
v 0.273018 2.182852 0.391992
v 0.506576 2.720561 0.437271
v 0.403550 2.185814 0.622382
v 0.113969 2.721227 0.662466
v 0.131450 2.226425 0.638031
v -0.116771 2.621452 0.393216
v 0.018647 2.177227 0.418161
v 0.026357 2.557369 0.165121
v -0.249823 1.988196 0.419298
v -0.567216 2.162770 0.312609
v -0.454000 2.313416 0.312601
v -0.493262 1.986790 0.593446
v -0.273699 2.241022 0.488320
v -0.611027 2.271217 0.513151
v -0.116771 2.621452 0.393216
v 0.113969 2.721227 0.662466
v -0.153700 2.760654 0.374276
v -0.008154 2.961784 0.526104
v 0.332293 3.087672 0.338632
v 0.506576 2.720561 0.437271
v -0.188458 3.188303 -0.146717
v -0.340995 3.188584 0.117139
v 0.332293 3.087672 0.338632
v -0.340995 3.188584 0.117139
v -0.188458 3.188303 -0.146717
v -0.506540 3.064880 0.096846
v -0.506540 3.064880 0.096846
v -0.188458 3.188303 -0.146717
v -0.296710 3.054016 -0.281805
v -0.506540 3.064880 0.096846
v -0.271777 2.979620 -0.414506
v -0.608824 2.977072 0.207731
v -0.422377 2.714000 0.248690
v -0.128646 2.717548 -0.273016
v -0.153700 2.760654 0.374276
v 0.113076 2.760903 -0.096780
v -0.296710 3.054016 -0.281805
v -0.153700 2.760654 0.374276
v -0.008154 2.961784 0.526104
v -0.211397 2.960860 0.452674
v 0.332293 3.087672 0.338632
v -0.358238 3.174164 0.439332
v -0.340995 3.188584 0.117139
v -0.506540 3.064880 0.096846
v -0.422377 2.714000 0.248690
v -0.608824 2.977072 0.207731
v 0.147122 2.589709 -0.075710
v 0.113076 2.760903 -0.096780
v 0.492582 2.723767 -0.018325
v 0.318041 2.962092 -0.049854
v 0.332293 3.087672 0.338632
v 0.506576 2.720561 0.437271
vt 0.5351 0.3759
vt 0.5167 0.4434
vt 0.5237 0.3902
vt 0.5517 0.3902
vt 0.5519 0.4434
vt 0.5167 0.4434
vt 0.5196 0.5929
vt 0.5619 0.5872
vt 0.5909 0.6115
vt 0.5618 0.5904
vt 0.5930 0.6272
vt 0.5007 0.6009
vt 0.5668 0.6836
vt 0.5747 0.6545
vt 0.5295 0.5925
vt 0.5890 0.6137
vt 0.5654 0.5871
vt 0.5662 0.5863
vt 0.5920 0.6219
vt 0.5024 0.5996
vt 0.5834 0.6759
vt 0.5785 0.6560
vt 0.6455 0.4824
vt 0.6220 0.4814
vt 0.6416 0.4118
vt 0.6199 0.4828
vt 0.6069 0.4111
vt 0.5976 0.4893
vt 0.5882 0.4119
vt 0.6075 0.4134
vt 0.5862 0.3763
vt 0.6108 0.4172
vt 0.5900 0.4154
vt 0.6336 0.3749
vt 0.5929 0.3760
vt 0.6203 0.3761
vt 0.6106 0.4148
vt 0.6342 0.4150
vt 0.6641 0.5529
vt 0.6484 0.4549
vt 0.6642 0.5539
vt 0.6192 0.4539
vt 0.5891 0.5700
vt 0.5875 0.4610
vt 0.6084 0.5673
vt 0.6166 0.4553
vt 0.5879 0.4945
vt 0.6053 0.4137
vt 0.5904 0.4120
vt 0.6043 0.4111
vt 0.6175 0.4884
vt 0.6389 0.4126
vt 0.6506 0.4879
vt 0.6202 0.4868
vt 0.5970 0.3793
vt 0.5866 0.4163
vt 0.6099 0.4161
vt 0.5874 0.3760
vt 0.6263 0.3781
vt 0.6357 0.3760
vt 0.6338 0.4149
vt 0.6127 0.4171
vt 0.8071 0.3752
vt 0.7909 0.3752
vt 0.7909 0.6245
vt 0.8071 0.6245
vt 0.7973 0.3752
vt 0.7973 0.6245
vt 0.7984 0.6855
vt 0.5215 0.5933
vt 0.4969 0.5554
vt 0.4971 0.5955
vt 0.5403 0.5586
vt 0.5659 0.5820
vt 0.5562 0.5581
vt 0.5665 0.5814
vt 0.6657 0.6430
vt 0.5898 0.6866
vt 0.6434 0.6573
vt 0.6660 0.5901
vt 0.5959 0.6096
vt 0.5942 0.5904
vt 0.6039 0.5915
vt 0.5969 0.6133
vt 0.6070 0.6866
vt 0.5516 0.5565
vt 0.5539 0.5572
vt 0.5610 0.5847
vt 0.5334 0.5911
vt 0.4979 0.5545
vt 0.4980 0.5957
vt 0.5610 0.5869
vt 0.5290 0.5277
vt 0.4986 0.5547
vt 0.5122 0.5258
vt 0.5676 0.5404
vt 0.5560 0.5620
vt 0.5631 0.5506
vt 0.6505 0.4752
vt 0.6642 0.5510
vt 0.6198 0.4740
vt 0.5860 0.5629
vt 0.5865 0.4822
vt 0.6070 0.5618
vt 0.6171 0.4757
vt 0.6642 0.5499
vt 0.5665 0.5443
vt 0.5360 0.5312
vt 0.5562 0.5586
vt 0.5129 0.5248
vt 0.5538 0.5576
vt 0.4999 0.5524
vt 0.6128 0.5597
vt 0.5906 0.5592
vt 0.6125 0.6177
vt 0.6014 0.6153
vt 0.6622 0.6018
vt 0.6622 0.5461
vt 0.6667 0.6861
vt 0.6159 0.6863
vt 0.6667 0.6449
vt 0.6479 0.6701
vt 0.6672 0.6638
vt 0.6449 0.6851
vt 0.6449 0.6851
vt 0.6672 0.6638
vt 0.6669 0.6861
vt 0.5705 0.5147
vt 0.4978 0.5078
vt 0.5769 0.5049
vt 0.5769 0.4547
vt 0.4984 0.4547
vt 0.5760 0.4279
vt 0.4963 0.4279
vt 0.5086 0.5145
vt 0.6123 0.5935
vt 0.5991 0.5919
vt 0.5960 0.6261
vt 0.6654 0.5895
vt 0.5877 0.6610
vt 0.6514 0.6569
vt 0.6169 0.6843
vt 0.5974 0.6312
vt 0.5785 0.6841
vt 0.6124 0.5592
vt 0.6121 0.6205
vt 0.5891 0.5588
vt 0.6005 0.6180
vt 0.6647 0.6037
vt 0.6647 0.5450
vn -0.7581 -0.4906 -0.4297
vn -0.2059 -0.6734 -0.7100
vn -0.3174 -0.2627 -0.9112
vn -0.9622 -0.1907 0.1946
vn -0.6668 -0.6455 0.3724
vn -0.2059 -0.6735 -0.7100
vn 0.2975 -0.0003 0.9547
vn 0.9780 -0.0888 -0.1886
vn 0.6262 0.0472 0.7783
vn -0.0407 -0.3051 -0.9515
vn -0.5315 -0.8454 -0.0526
vn -0.9366 -0.0261 0.3495
vn -0.9799 0.1885 -0.0650
vn -0.2587 0.7093 0.6557
vn 0.9877 0.1059 -0.1149
vn 0.9715 0.1386 0.1921
vn 0.2351 -0.0717 0.9693
vn -0.8340 -0.4236 0.3535
vn -0.1248 -0.9108 -0.3935
vn -0.0333 -0.0306 -0.9990
vn -0.5096 0.1500 -0.8472
vn 0.4106 0.7509 -0.5172
vn 0.4661 -0.2181 -0.8574
vn 0.9873 0.0049 0.1590
vn 0.4325 0.1862 -0.8822
vn -0.5683 -0.0076 -0.8228
vn -0.6251 0.2834 -0.7272
vn -0.5161 0.0345 0.8558
vn -0.3006 0.3545 0.8854
vn 0.8279 0.2540 0.5000
vn 0.2263 -0.1287 0.9655
vn 0.5674 -0.5661 -0.5979
vn -0.8275 -0.3186 0.4623
vn -0.6348 -0.1333 -0.7611
vn -0.4837 -0.2152 0.8484
vn 0.8630 0.1270 0.4891
vn 0.8476 -0.0128 0.5305
vn 0.7483 0.2088 -0.6296
vn 0.4705 0.0298 -0.8819
vn -0.9095 -0.2851 -0.3027
vn 0.8028 0.3455 0.4859
vn 0.6427 0.3482 -0.6824
vn -0.6116 0.7697 -0.1832
vn -0.9041 -0.3090 -0.2951
vn -0.5579 0.0082 0.8299
vn -0.4730 -0.2627 0.8410
vn 0.8424 -0.0441 0.5370
vn -0.9783 0.1528 -0.1399
vn -0.2587 -0.6037 0.7541
vn -0.1467 -0.1498 -0.9778
vn 0.9567 -0.2082 -0.2035
vn -0.1175 0.1382 -0.9834
vn -0.7935 -0.1637 0.5862
vn -0.9770 0.0189 -0.2124
vn 0.6428 0.3107 -0.7002
vn 0.9151 0.0592 0.3988
vn 0.2917 0.0298 0.9560
vn -0.0688 0.9955 0.0652
vn -0.0604 0.0668 -0.9959
vn 0.8181 0.1350 0.5590
vn 0.2351 -0.0718 0.9693
vn -0.8113 -0.0100 0.5845
vn -0.8340 -0.4236 0.3534
vn -0.2654 0.9517 -0.1545
vn 0.4105 0.7510 -0.5172
vn -0.3848 0.6953 -0.6070
vn 0.5024 0.8161 0.2857
vn 0.6435 0.2927 -0.7073
vn -0.5097 0.1500 -0.8472
vn 0.8527 0.0307 0.5216
vn 0.2093 0.1313 -0.9690
vn -0.9286 0.0388 0.3691
vn -0.0407 -0.3051 -0.9514
vn -0.8025 -0.5007 -0.3245
vn 0.7031 -0.4125 -0.5792
vn -0.1727 -0.5145 0.8400
vn 0.8629 0.1270 0.4891
vn 0.7014 -0.1229 0.7021
vn -0.1461 0.1717 0.9743
vn -0.5161 0.0344 0.8558
vn -0.8222 -0.4415 -0.3593
vn -0.7581 -0.4906 -0.4296
vn 0.6488 -0.4271 -0.6298
vn -0.6657 -0.2817 -0.6910
vn -0.2732 -0.5988 0.7529
vn 0.8526 0.0307 0.5216
vn -0.2758 0.2918 0.9158
vn 0.5024 0.8160 0.2857
vn 0.0527 0.9982 0.0294
vn -0.5431 0.7784 -0.3148
vn -0.5484 0.7700 -0.3260
vn -0.8720 0.0302 -0.4886
vn -0.5316 -0.8454 -0.0526
vn -0.6669 -0.6455 0.3723
vn -0.8744 0.0128 -0.4849
vn -0.2573 0.9557 -0.1429
vn -0.7047 0.7082 -0.0436
vn 0.7484 0.2089 -0.6296
usemtl LordSNatural
s 1
f 1/1/1 2/2/2 3/3/3
f 1/1/1 4/4/4 5/5/5
f 6/6/6 1/1/1 5/5/5
f 7/7/7 8/8/8 9/9/9
f 8/8/8 10/10/10 9/9/9
f 11/11/11 9/9/9 10/10/10
f 12/12/12 11/11/11 10/10/10
f 11/11/11 12/12/12 13/13/13
f 14/14/14 13/13/13 12/12/12
f 12/12/12 7/7/7 14/14/14
f 9/9/9 14/14/14 7/7/7
f 15/15/15 16/16/16 17/17/17
f 17/17/17 16/16/16 18/18/18
f 19/19/19 18/18/18 16/16/16
f 20/20/20 18/18/18 19/19/19
f 19/19/19 21/21/21 20/20/20
f 22/22/22 20/20/20 21/21/21
f 20/20/20 22/22/22 15/15/15
f 16/16/16 15/15/15 22/22/22
f 23/23/23 24/24/24 25/25/25
f 25/25/25 26/26/26 23/23/23
f 26/26/26 25/25/25 27/27/27
f 27/27/27 28/28/28 26/26/26
f 28/28/28 27/27/27 29/29/29
f 28/28/28 29/29/29 30/30/30
f 30/30/30 25/25/25 24/24/24
f 30/30/30 24/24/24 28/28/28
f 31/31/31 30/32/30 29/33/29
f 30/32/30 31/31/31 32/34/32
f 32/34/32 31/31/31 33/35/33
f 32/34/32 33/35/33 34/36/34
f 27/37/27 34/36/34 33/35/33
f 34/36/34 27/37/27 25/38/25
f 32/34/32 25/38/25 30/32/30
f 25/38/25 32/34/32 34/36/34
f 29/33/29 33/35/33 31/31/31
f 33/35/33 29/33/29 27/37/27
f 35/39/1 36/40/35 37/41/36
f 38/42/37 37/41/36 36/40/35
f 39/43/38 37/41/36 38/42/37
f 38/42/37 40/44/39 39/43/38
f 40/44/39 41/45/3 39/43/38
f 40/44/39 42/46/40 41/45/3
f 41/45/3 42/46/40 35/39/1
f 36/40/35 35/39/1 42/46/40
f 43/47/39 44/48/41 45/49/42
f 43/47/39 45/49/42 46/50/43
f 46/50/43 47/51/44 43/47/39
f 47/51/44 46/50/43 48/52/45
f 48/52/45 49/53/46 47/51/44
f 49/53/46 48/52/45 50/54/47
f 44/48/41 43/47/39 50/54/47
f 44/48/41 50/54/47 48/52/45
f 51/55/48 48/56/45 46/57/43
f 48/56/45 51/55/48 52/58/49
f 52/58/49 51/55/48 53/59/50
f 52/58/49 53/59/50 54/60/51
f 45/61/42 54/60/51 53/59/50
f 54/60/51 45/61/42 44/62/41
f 53/59/50 46/57/43 45/61/42
f 46/57/43 53/59/50 51/55/48
f 52/58/49 44/62/41 48/56/45
f 44/62/41 52/58/49 54/60/51
f 55/63/52 56/64/53 57/65/54
f 55/63/52 57/65/54 58/66/55
f 59/67/56 55/63/52 58/66/55
f 59/67/56 58/66/55 60/68/57
f 58/66/55 57/65/54 61/69/58
f 57/65/54 60/68/57 61/69/58
f 56/64/53 60/68/57 57/65/54
f 56/64/53 59/67/56 60/68/57
f 60/68/57 58/66/55 61/69/58
f 62/70/15 63/71/59 64/72/20
f 63/71/59 62/70/15 65/73/60
f 66/74/61 65/73/60 62/70/15
f 65/73/60 66/74/61 67/75/62
f 68/76/63 67/75/62 66/74/61
f 63/71/59 67/75/62 68/76/63
f 68/76/63 64/72/20 63/71/59
f 69/77/64 70/78/65 71/79/66
f 72/80/67 70/78/65 69/77/64
f 73/81/16 70/78/65 72/80/67
f 74/82/68 73/81/16 72/80/67
f 75/83/2 73/81/16 74/82/68
f 75/83/2 76/84/19 73/81/16
f 77/85/69 71/79/66 70/78/65
f 78/86/70 79/87/71 80/88/8
f 80/88/8 81/89/7 78/86/70
f 82/90/72 78/86/70 81/89/7
f 81/89/7 83/91/12 82/90/72
f 84/92/73 82/90/72 83/91/12
f 82/90/72 84/92/73 79/87/71
f 84/92/73 80/88/8 79/87/71
f 85/93/74 86/94/59 87/95/75
f 85/93/74 87/95/75 88/96/76
f 87/95/75 89/97/60 88/96/76
f 90/98/62 88/96/76 89/97/60
f 86/94/59 85/93/74 90/98/62
f 88/96/76 90/98/62 85/93/74
f 89/97/60 87/95/75 86/94/59
f 91/99/23 92/100/77 93/101/78
f 94/102/79 93/101/78 92/100/77
f 93/101/78 94/102/79 95/103/80
f 95/103/80 94/102/79 96/104/4
f 95/103/80 96/104/4 97/105/81
f 98/106/82 97/105/81 96/104/4
f 92/100/77 91/99/23 98/106/82
f 97/105/81 98/106/82 91/99/23
f 99/107/83 100/108/84 101/109/71
f 100/108/84 99/107/83 102/110/85
f 102/110/85 99/107/83 103/111/86
f 103/111/86 104/112/72 102/110/85
f 104/112/72 101/109/71 100/108/84
f 100/108/84 102/110/85 104/112/72
f 101/109/71 103/111/86 99/107/83
f 105/113/4 106/114/79 107/115/5
f 107/115/5 106/114/79 108/116/87
f 106/114/79 109/117/88 108/116/87
f 110/118/77 109/117/88 106/114/79
f 111/119/89 112/120/89 113/121/67
f 114/122/90 115/123/90 116/124/90
f 117/125/91 118/126/91 119/127/91
f 120/128/92 121/129/21 122/130/13
f 122/130/13 121/129/21 123/131/93
f 121/129/21 124/132/19 123/131/93
f 124/132/19 125/133/94 123/131/93
f 124/132/19 126/134/2 125/133/94
f 127/135/95 121/129/21 120/128/92
f 128/136/5 129/137/87 130/138/9
f 129/137/87 131/139/67 130/138/9
f 130/138/9 131/139/67 132/140/14
f 133/141/96 132/140/14 131/139/67
f 134/142/97 132/140/14 133/141/96
f 128/136/5 130/138/9 135/143/93
f 132/140/14 134/142/97 136/144/13
f 137/145/3 138/146/2 139/147/98
f 138/146/2 140/148/68 139/147/98
f 139/147/98 140/148/68 141/149/67
f 142/150/36 139/147/98 141/149/67
